<?xml version="1.0" encoding="UTF-8"?>
<!DOCTYPE svg PUBLIC "-//W3C//DTD SVG 1.1//EN" "http://www.w3.org/Graphics/SVG/1.1/DTD/svg11.dtd">
<svg xmlns="http://www.w3.org/2000/svg" version="1.1" width="240px" height="240px" style="shape-rendering:geometricPrecision; text-rendering:geometricPrecision; image-rendering:optimizeQuality; fill-rule:evenodd; clip-rule:evenodd" xmlns:xlink="http://www.w3.org/1999/xlink">
<g><path style="opacity:1" fill="#00fefe" d="M -0.5,-0.5 C 79.5,-0.5 159.5,-0.5 239.5,-0.5C 239.5,29.5 239.5,59.5 239.5,89.5C 236.167,89.5 232.833,89.5 229.5,89.5C 229.5,86.1667 229.5,82.8333 229.5,79.5C 222.833,79.5 216.167,79.5 209.5,79.5C 209.5,76.1667 209.5,72.8333 209.5,69.5C 206.167,69.5 202.833,69.5 199.5,69.5C 199.5,66.1667 199.5,62.8333 199.5,59.5C 189.5,59.5 179.5,59.5 169.5,59.5C 169.5,56.1667 169.5,52.8333 169.5,49.5C 142.833,49.5 116.167,49.5 89.5,49.5C 89.5,52.8333 89.5,56.1667 89.5,59.5C 79.5,59.5 69.5,59.5 59.5,59.5C 59.5,62.8333 59.5,66.1667 59.5,69.5C 52.8333,69.5 46.1667,69.5 39.5,69.5C 39.5,72.8333 39.5,76.1667 39.5,79.5C 36.1667,79.5 32.8333,79.5 29.5,79.5C 29.5,82.8333 29.5,86.1667 29.5,89.5C 26.1667,89.5 22.8333,89.5 19.5,89.5C 19.5,96.1667 19.5,102.833 19.5,109.5C 16.1667,109.5 12.8333,109.5 9.5,109.5C 9.5,112.833 9.5,116.167 9.5,119.5C 6.5,119.5 3.5,119.5 0.5,119.5C 0.166667,119.5 -0.166667,119.5 -0.5,119.5C -0.5,79.5 -0.5,39.5 -0.5,-0.5 Z"/></g>
<g><path style="opacity:1" fill="#050502" d="M 169.5,59.5 C 162.833,59.5 156.167,59.5 149.5,59.5C 146.167,59.5 142.833,59.5 139.5,59.5C 132.833,59.5 126.167,59.5 119.5,59.5C 109.5,59.5 99.5,59.5 89.5,59.5C 89.5,56.1667 89.5,52.8333 89.5,49.5C 116.167,49.5 142.833,49.5 169.5,49.5C 169.5,52.8333 169.5,56.1667 169.5,59.5 Z"/></g>
<g><path style="opacity:1" fill="#060603" d="M 89.5,59.5 C 89.5,62.8333 89.5,66.1667 89.5,69.5C 79.5,69.5 69.5,69.5 59.5,69.5C 59.5,66.1667 59.5,62.8333 59.5,59.5C 69.5,59.5 79.5,59.5 89.5,59.5 Z"/></g>
<g><path style="opacity:1" fill="#e0e777" d="M 89.5,59.5 C 99.5,59.5 109.5,59.5 119.5,59.5C 119.5,62.8333 119.5,66.1667 119.5,69.5C 109.5,69.5 99.5,69.5 89.5,69.5C 89.5,66.1667 89.5,62.8333 89.5,59.5 Z"/></g>
<g><path style="opacity:1" fill="#010402" d="M 169.5,59.5 C 179.5,59.5 189.5,59.5 199.5,59.5C 199.5,62.8333 199.5,66.1667 199.5,69.5C 189.5,69.5 179.5,69.5 169.5,69.5C 169.5,66.1667 169.5,62.8333 169.5,59.5 Z"/></g>
<g><path style="opacity:1" fill="#aed943" d="M 119.5,59.5 C 126.167,59.5 132.833,59.5 139.5,59.5C 139.5,62.8333 139.5,66.1667 139.5,69.5C 142.833,69.5 146.167,69.5 149.5,69.5C 156.167,69.5 162.833,69.5 169.5,69.5C 169.5,72.8333 169.5,76.1667 169.5,79.5C 172.833,79.5 176.167,79.5 179.5,79.5C 179.5,82.8333 179.5,86.1667 179.5,89.5C 182.833,89.5 186.167,89.5 189.5,89.5C 189.5,92.8333 189.5,96.1667 189.5,99.5C 196.167,99.5 202.833,99.5 209.5,99.5C 209.5,109.5 209.5,119.5 209.5,129.5C 212.833,129.5 216.167,129.5 219.5,129.5C 219.5,146.167 219.5,162.833 219.5,179.5C 222.833,179.5 226.167,179.5 229.5,179.5C 229.5,182.833 229.5,186.167 229.5,189.5C 226.167,189.5 222.833,189.5 219.5,189.5C 219.5,192.833 219.5,196.167 219.5,199.5C 216.167,199.5 212.833,199.5 209.5,199.5C 209.5,206.167 209.5,212.833 209.5,219.5C 196.167,219.5 182.833,219.5 169.5,219.5C 169.5,222.5 169.5,225.5 169.5,228.5C 116.167,228.5 62.8333,228.5 9.5,228.5C 9.5,225.5 9.5,222.5 9.5,219.5C 12.8333,219.5 16.1667,219.5 19.5,219.5C 19.5,209.5 19.5,199.5 19.5,189.5C 16.1667,189.5 12.8333,189.5 9.5,189.5C 9.5,189.167 9.5,188.833 9.5,188.5C 9.5,178.833 9.5,169.167 9.5,159.5C 12.8333,159.5 16.1667,159.5 19.5,159.5C 19.5,162.833 19.5,166.167 19.5,169.5C 22.8333,169.5 26.1667,169.5 29.5,169.5C 29.5,159.5 29.5,149.5 29.5,139.5C 36.1667,139.5 42.8333,139.5 49.5,139.5C 49.5,136.167 49.5,132.833 49.5,129.5C 42.8333,129.5 36.1667,129.5 29.5,129.5C 29.5,122.833 29.5,116.167 29.5,109.5C 32.8333,109.5 36.1667,109.5 39.5,109.5C 39.5,102.833 39.5,96.1667 39.5,89.5C 49.5,89.5 59.5,89.5 69.5,89.5C 69.5,86.1667 69.5,82.8333 69.5,79.5C 76.1667,79.5 82.8333,79.5 89.5,79.5C 89.5,76.1667 89.5,72.8333 89.5,69.5C 99.5,69.5 109.5,69.5 119.5,69.5C 119.5,66.1667 119.5,62.8333 119.5,59.5 Z"/></g>
<g><path style="opacity:1" fill="#46a426" d="M 149.5,59.5 C 156.167,59.5 162.833,59.5 169.5,59.5C 169.5,62.8333 169.5,66.1667 169.5,69.5C 162.833,69.5 156.167,69.5 149.5,69.5C 149.5,66.1667 149.5,62.8333 149.5,59.5 Z"/></g>
<g><path style="opacity:1" fill="#e1e777" d="M 139.5,59.5 C 142.833,59.5 146.167,59.5 149.5,59.5C 149.5,62.8333 149.5,66.1667 149.5,69.5C 146.167,69.5 142.833,69.5 139.5,69.5C 139.5,66.1667 139.5,62.8333 139.5,59.5 Z"/></g>
<g><path style="opacity:1" fill="#060704" d="M 59.5,69.5 C 59.5,72.8333 59.5,76.1667 59.5,79.5C 52.8333,79.5 46.1667,79.5 39.5,79.5C 39.5,76.1667 39.5,72.8333 39.5,69.5C 46.1667,69.5 52.8333,69.5 59.5,69.5 Z"/></g>
<g><path style="opacity:1" fill="#010503" d="M 199.5,69.5 C 202.833,69.5 206.167,69.5 209.5,69.5C 209.5,72.8333 209.5,76.1667 209.5,79.5C 206.167,79.5 202.833,79.5 199.5,79.5C 199.5,76.1667 199.5,72.8333 199.5,69.5 Z"/></g>
<g><path style="opacity:1" fill="#e0e777" d="M 59.5,69.5 C 69.5,69.5 79.5,69.5 89.5,69.5C 89.5,72.8333 89.5,76.1667 89.5,79.5C 82.8333,79.5 76.1667,79.5 69.5,79.5C 69.5,82.8333 69.5,86.1667 69.5,89.5C 59.5,89.5 49.5,89.5 39.5,89.5C 39.5,86.1667 39.5,82.8333 39.5,79.5C 46.1667,79.5 52.8333,79.5 59.5,79.5C 59.5,76.1667 59.5,72.8333 59.5,69.5 Z"/></g>
<g><path style="opacity:1" fill="#060907" d="M 39.5,79.5 C 39.5,82.8333 39.5,86.1667 39.5,89.5C 36.1667,89.5 32.8333,89.5 29.5,89.5C 29.5,86.1667 29.5,82.8333 29.5,79.5C 32.8333,79.5 36.1667,79.5 39.5,79.5 Z"/></g>
<g><path style="opacity:1" fill="#010401" d="M 209.5,79.5 C 216.167,79.5 222.833,79.5 229.5,79.5C 229.5,82.8333 229.5,86.1667 229.5,89.5C 222.833,89.5 216.167,89.5 209.5,89.5C 209.5,86.1667 209.5,82.8333 209.5,79.5 Z"/></g>
<g><path style="opacity:1" fill="#020605" d="M 29.5,89.5 C 29.5,96.1667 29.5,102.833 29.5,109.5C 26.1667,109.5 22.8333,109.5 19.5,109.5C 19.5,102.833 19.5,96.1667 19.5,89.5C 22.8333,89.5 26.1667,89.5 29.5,89.5 Z"/></g>
<g><path style="opacity:1" fill="#010302" d="M 229.5,89.5 C 232.833,89.5 236.167,89.5 239.5,89.5C 239.5,99.5 239.5,109.5 239.5,119.5C 236.167,119.5 232.833,119.5 229.5,119.5C 229.5,109.5 229.5,99.5 229.5,89.5 Z"/></g>
<g><path style="opacity:1" fill="#dee576" d="M 29.5,89.5 C 32.8333,89.5 36.1667,89.5 39.5,89.5C 39.5,96.1667 39.5,102.833 39.5,109.5C 36.1667,109.5 32.8333,109.5 29.5,109.5C 29.5,102.833 29.5,96.1667 29.5,89.5 Z"/></g>
<g><path style="opacity:1" fill="#46a426" d="M 169.5,69.5 C 179.5,69.5 189.5,69.5 199.5,69.5C 199.5,72.8333 199.5,76.1667 199.5,79.5C 202.833,79.5 206.167,79.5 209.5,79.5C 209.5,82.8333 209.5,86.1667 209.5,89.5C 216.167,89.5 222.833,89.5 229.5,89.5C 229.5,99.5 229.5,109.5 229.5,119.5C 232.833,119.5 236.167,119.5 239.5,119.5C 239.5,142.833 239.5,166.167 239.5,189.5C 236.167,189.5 232.833,189.5 229.5,189.5C 229.5,186.167 229.5,182.833 229.5,179.5C 226.167,179.5 222.833,179.5 219.5,179.5C 219.5,162.833 219.5,146.167 219.5,129.5C 216.167,129.5 212.833,129.5 209.5,129.5C 209.5,119.5 209.5,109.5 209.5,99.5C 202.833,99.5 196.167,99.5 189.5,99.5C 189.5,96.1667 189.5,92.8333 189.5,89.5C 186.167,89.5 182.833,89.5 179.5,89.5C 179.5,86.1667 179.5,82.8333 179.5,79.5C 176.167,79.5 172.833,79.5 169.5,79.5C 169.5,76.1667 169.5,72.8333 169.5,69.5 Z"/></g>
<g><path style="opacity:1" fill="#080c08" d="M 19.5,109.5 C 19.5,112.833 19.5,116.167 19.5,119.5C 16.1667,119.5 12.8333,119.5 9.5,119.5C 9.5,116.167 9.5,112.833 9.5,109.5C 12.8333,109.5 16.1667,109.5 19.5,109.5 Z"/></g>
<g><path style="opacity:1" fill="#dfe677" d="M 19.5,109.5 C 22.8333,109.5 26.1667,109.5 29.5,109.5C 29.5,116.167 29.5,122.833 29.5,129.5C 29.5,132.833 29.5,136.167 29.5,139.5C 26.1667,139.5 22.8333,139.5 19.5,139.5C 19.5,146.167 19.5,152.833 19.5,159.5C 16.1667,159.5 12.8333,159.5 9.5,159.5C 9.5,146.167 9.5,132.833 9.5,119.5C 12.8333,119.5 16.1667,119.5 19.5,119.5C 19.5,116.167 19.5,112.833 19.5,109.5 Z"/></g>
<g><path style="opacity:1" fill="#002424" d="M -0.5,119.5 C -0.166667,119.5 0.166667,119.5 0.5,119.5C 0.5,142.5 0.5,165.5 0.5,188.5C 3.5,188.5 6.5,188.5 9.5,188.5C 9.5,188.833 9.5,189.167 9.5,189.5C 6.16667,189.5 2.83333,189.5 -0.5,189.5C -0.5,166.167 -0.5,142.833 -0.5,119.5 Z"/></g>
<g><path style="opacity:1" fill="#000000" d="M 0.5,119.5 C 3.5,119.5 6.5,119.5 9.5,119.5C 9.5,132.833 9.5,146.167 9.5,159.5C 9.5,169.167 9.5,178.833 9.5,188.5C 6.5,188.5 3.5,188.5 0.5,188.5C 0.5,165.5 0.5,142.5 0.5,119.5 Z"/></g>
<g><path style="opacity:1" fill="#080a05" d="M 29.5,129.5 C 36.1667,129.5 42.8333,129.5 49.5,129.5C 49.5,132.833 49.5,136.167 49.5,139.5C 42.8333,139.5 36.1667,139.5 29.5,139.5C 29.5,136.167 29.5,132.833 29.5,129.5 Z"/></g>
<g><path style="opacity:1" fill="#070803" d="M 119.5,139.5 C 112.833,139.5 106.167,139.5 99.5,139.5C 99.5,136.167 99.5,132.833 99.5,129.5C 106.167,129.5 112.833,129.5 119.5,129.5C 119.5,132.833 119.5,136.167 119.5,139.5 Z"/></g>
<g><path style="opacity:1" fill="#050502" d="M 29.5,139.5 C 29.5,149.5 29.5,159.5 29.5,169.5C 26.1667,169.5 22.8333,169.5 19.5,169.5C 19.5,166.167 19.5,162.833 19.5,159.5C 19.5,152.833 19.5,146.167 19.5,139.5C 22.8333,139.5 26.1667,139.5 29.5,139.5 Z"/></g>
<g><path style="opacity:1" fill="#040501" d="M 49.5,139.5 C 52.8333,139.5 56.1667,139.5 59.5,139.5C 59.5,149.5 59.5,159.5 59.5,169.5C 56.1667,169.5 52.8333,169.5 49.5,169.5C 49.5,159.5 49.5,149.5 49.5,139.5 Z"/></g>
<g><path style="opacity:1" fill="#020301" d="M 99.5,139.5 C 99.5,149.5 99.5,159.5 99.5,169.5C 96.1667,169.5 92.8333,169.5 89.5,169.5C 89.5,159.5 89.5,149.5 89.5,139.5C 92.8333,139.5 96.1667,139.5 99.5,139.5 Z"/></g>
<g><path style="opacity:1" fill="#020302" d="M 119.5,139.5 C 122.833,139.5 126.167,139.5 129.5,139.5C 129.5,149.5 129.5,159.5 129.5,169.5C 126.167,169.5 122.833,169.5 119.5,169.5C 119.5,159.5 119.5,149.5 119.5,139.5 Z"/></g>
<g><path style="opacity:1" fill="#c971a9" d="M 19.5,189.5 C 19.5,186.167 19.5,182.833 19.5,179.5C 29.5,179.5 39.5,179.5 49.5,179.5C 49.5,182.833 49.5,186.167 49.5,189.5C 39.5,189.5 29.5,189.5 19.5,189.5 Z"/></g>
<g><path style="opacity:1" fill="#c970aa" d="M 99.5,179.5 C 112.833,179.5 126.167,179.5 139.5,179.5C 139.5,182.833 139.5,186.167 139.5,189.5C 126.167,189.5 112.833,189.5 99.5,189.5C 99.5,186.167 99.5,182.833 99.5,179.5 Z"/></g>
<g><path style="opacity:1" fill="#00fcfb" d="M -0.5,189.5 C 2.83333,189.5 6.16667,189.5 9.5,189.5C 9.5,199.5 9.5,209.5 9.5,219.5C 6.16667,219.5 2.83333,219.5 -0.5,219.5C -0.5,209.5 -0.5,199.5 -0.5,189.5 Z"/></g>
<g><path style="opacity:1" fill="#020604" d="M 9.5,189.5 C 12.8333,189.5 16.1667,189.5 19.5,189.5C 19.5,199.5 19.5,209.5 19.5,219.5C 16.1667,219.5 12.8333,219.5 9.5,219.5C 9.5,209.5 9.5,199.5 9.5,189.5 Z"/></g>
<g><path style="opacity:1" fill="#020506" d="M 229.5,189.5 C 232.833,189.5 236.167,189.5 239.5,189.5C 239.5,196.167 239.5,202.833 239.5,209.5C 236.167,209.5 232.833,209.5 229.5,209.5C 229.5,202.833 229.5,196.167 229.5,189.5 Z"/></g>
<g><path style="opacity:1" fill="#489d25" d="M 229.5,189.5 C 229.5,196.167 229.5,202.833 229.5,209.5C 226.167,209.5 222.833,209.5 219.5,209.5C 219.5,212.833 219.5,216.167 219.5,219.5C 222.833,219.5 226.167,219.5 229.5,219.5C 229.5,222.833 229.5,226.167 229.5,229.5C 155.998,229.833 82.6648,229.499 9.5,228.5C 62.8333,228.5 116.167,228.5 169.5,228.5C 169.5,225.5 169.5,222.5 169.5,219.5C 182.833,219.5 196.167,219.5 209.5,219.5C 209.5,212.833 209.5,206.167 209.5,199.5C 212.833,199.5 216.167,199.5 219.5,199.5C 219.5,196.167 219.5,192.833 219.5,189.5C 222.833,189.5 226.167,189.5 229.5,189.5 Z"/></g>
<g><path style="opacity:1" fill="#030903" d="M 229.5,209.5 C 229.5,212.833 229.5,216.167 229.5,219.5C 226.167,219.5 222.833,219.5 219.5,219.5C 219.5,216.167 219.5,212.833 219.5,209.5C 222.833,209.5 226.167,209.5 229.5,209.5 Z"/></g>
<g><path style="opacity:1" fill="#02f6f5" d="M 229.5,209.5 C 232.833,209.5 236.167,209.5 239.5,209.5C 239.5,212.833 239.5,216.167 239.5,219.5C 236.167,219.5 232.833,219.5 229.5,219.5C 229.5,216.167 229.5,212.833 229.5,209.5 Z"/></g>
<g><path style="opacity:0.965" fill="#000000" d="M -0.5,219.5 C 2.83333,219.5 6.16667,219.5 9.5,219.5C 9.5,222.5 9.5,225.5 9.5,228.5C 82.6648,229.499 155.998,229.833 229.5,229.5C 229.5,226.167 229.5,222.833 229.5,219.5C 232.833,219.5 236.167,219.5 239.5,219.5C 239.5,226.167 239.5,232.833 239.5,239.5C 159.5,239.5 79.5,239.5 -0.5,239.5C -0.5,232.833 -0.5,226.167 -0.5,219.5 Z"/></g>
</svg>
