<?xml version="1.0" standalone="no"?>
<!DOCTYPE svg PUBLIC "-//W3C//DTD SVG 20010904//EN"
 "http://www.w3.org/TR/2001/REC-SVG-20010904/DTD/svg10.dtd">
<svg version="1.0" xmlns="http://www.w3.org/2000/svg"
 width="240.000000pt" height="240.000000pt" viewBox="0 0 240.000000 240.000000"
 preserveAspectRatio="xMidYMid meet">

<g transform="translate(0.000000,240.000000) scale(0.100000,-0.100000)"
fill="#000000" stroke="none">
<path d="M900 1850 l0 -50 -150 0 -150 0 0 -50 0 -50 -100 0 -100 0 0 -50 0
-50 -50 0 -50 0 0 -50 0 -50 -50 0 -50 0 0 -100 0 -100 -50 0 -50 0 0 -50 0
-50 -50 0 -50 0 0 -350 0 -350 50 0 50 0 0 -150 0 -150 -50 0 -50 0 0 -100 0
-100 1200 0 1200 0 0 100 0 100 -50 0 -50 0 0 50 0 50 50 0 50 0 0 108 0 108
-52 -6 -53 -5 -3 -97 -3 -97 -47 -3 -47 -3 0 -50 0 -50 48 -3 c36 -2 47 -7 48
-20 0 -9 2 -29 4 -43 l3 -27 -601 -6 c-331 -4 -825 -6 -1097 -4 l-495 3 -3 48
-3 47 50 0 51 0 0 149 0 150 -47 3 -48 3 -3 348 -2 347 50 0 50 0 0 50 0 50
50 0 50 0 0 100 0 100 50 0 50 0 0 50 0 50 100 0 100 0 0 50 0 50 150 0 150 0
0 50 0 50 400 0 400 0 0 -50 0 -50 144 0 145 0 3 -47 3 -48 48 -3 47 -3 1 -42
c1 -23 1 -45 0 -49 0 -5 44 -8 99 -8 l99 0 3 -147 3 -148 47 -3 48 -3 3 -337
c2 -286 3 -264 5 151 l2 487 -50 0 -50 0 0 50 0 50 -100 0 -100 0 0 50 0 50
-50 0 -50 0 0 50 0 50 -150 0 -150 0 0 50 0 50 -400 0 -400 0 0 -50z"/>
<path d="M300 1050 l0 -50 -50 0 -50 0 0 -150 0 -150 50 0 50 0 0 150 0 150
100 0 100 0 0 -150 0 -150 50 0 50 0 0 150 0 150 -50 0 -50 0 0 50 0 50 -100
0 -100 0 0 -50z"/>
<path d="M1000 1050 l0 -50 -50 0 -50 0 0 -150 0 -150 50 0 50 0 0 150 0 150
100 0 100 0 0 -150 0 -150 50 0 50 0 0 150 0 150 -50 0 -50 0 0 50 0 50 -100
0 -100 0 0 -50z"/>
</g>
</svg>
