<svg id="svg" version="1.1" xmlns="http://www.w3.org/2000/svg" xmlns:xlink="http://www.w3.org/1999/xlink" width="400" height="400" viewBox="0, 0, 400,400"><g id="svgg"><path id="path1" d="M184.444 92.639 C 170.722 95.340,164.213 97.257,155.741 101.094 C 152.193 102.701,147.429 105.151,146.239 105.981 C 145.698 106.358,145.140 106.667,144.997 106.667 C 144.232 106.667,134.917 113.243,130.323 117.027 C 127.695 119.191,118.639 128.261,117.019 130.352 C 116.316 131.259,115.319 132.509,114.803 133.130 C 104.408 145.649,96.693 163.098,93.096 182.222 C 92.067 187.691,91.959 209.513,92.928 216.090 C 95.268 231.966,101.007 246.778,110.086 260.370 C 112.356 263.768,113.946 265.876,117.766 270.549 C 122.496 276.335,133.608 286.010,141.512 291.222 C 166.940 307.993,201.232 312.552,232.593 303.330 C 241.842 300.610,253.239 294.971,262.037 288.762 C 265.355 286.420,266.505 285.540,270.552 282.239 C 271.834 281.193,280.372 272.650,282.053 270.731 C 294.677 256.317,303.726 236.817,306.856 217.276 C 307.844 211.110,308.209 190.893,307.419 186.111 C 307.251 185.093,306.916 183.009,306.676 181.481 C 304.255 166.081,294.394 143.316,286.370 134.600 C 286.010 134.209,285.471 133.538,285.172 133.109 C 280.024 125.705,258.297 106.667,254.995 106.667 C 254.857 106.667,254.302 106.358,253.761 105.981 C 251.754 104.581,242.815 100.259,239.815 99.238 C 239.000 98.961,238.166 98.616,237.962 98.472 C 236.566 97.486,224.667 94.382,216.111 92.773 C 213.090 92.205,187.207 92.095,184.444 92.639 M197.527 167.927 C 207.444 187.913,211.950 197.451,215.973 206.974 C 218.901 213.904,221.346 219.439,221.406 219.272 C 221.467 219.106,220.850 213.244,220.036 206.244 C 217.886 187.755,217.778 185.651,217.778 162.519 L 217.778 141.481 232.553 141.481 C 245.684 141.481,247.353 141.547,247.553 142.067 C 247.893 142.954,247.811 257.522,247.470 258.060 C 247.237 258.426,243.763 258.506,231.352 258.430 L 215.531 258.333 202.285 231.481 C 193.123 212.910,187.449 200.895,183.885 192.517 C 181.050 185.855,178.688 180.448,178.636 180.500 C 178.583 180.553,179.038 184.920,179.647 190.205 C 180.255 195.490,181.001 201.981,181.304 204.630 C 182.165 212.167,182.639 227.353,182.518 243.519 L 182.407 258.333 167.500 258.430 L 152.593 258.527 152.593 200.004 L 152.593 141.481 168.499 141.481 L 184.405 141.481 197.527 167.927 " stroke="none" fill="#44ccb4" fill-rule="evenodd"></path><path id="path2" d="M181.958 219.815 C 181.961 220.833,182.032 221.206,182.118 220.643 C 182.203 220.080,182.200 219.247,182.113 218.791 C 182.025 218.336,181.955 218.796,181.958 219.815 M231.481 258.148 L 215.741 258.345 231.367 258.432 C 241.479 258.488,247.074 258.388,247.222 258.148 C 247.348 257.944,247.400 257.817,247.337 257.864 C 247.274 257.912,240.139 258.040,231.481 258.148 M160.093 258.425 C 164.116 258.485,170.699 258.485,174.722 258.425 C 178.745 258.366,175.454 258.317,167.407 258.317 C 159.361 258.317,156.069 258.366,160.093 258.425 " stroke="none" fill="#359085" fill-rule="evenodd"></path><path id="path3" d="M158.148 141.748 C 172.811 142.007,184.729 142.012,184.573 141.759 C 184.478 141.606,177.202 141.519,168.404 141.564 C 159.606 141.609,154.991 141.692,158.148 141.748 M225.093 141.759 C 229.218 141.818,235.968 141.818,240.093 141.759 C 244.218 141.699,240.843 141.650,232.593 141.650 C 224.343 141.650,220.968 141.699,225.093 141.759 M247.588 200.000 C 247.588 231.880,247.632 244.921,247.685 228.981 C 247.739 213.042,247.739 186.958,247.685 171.019 C 247.632 155.079,247.588 168.120,247.588 200.000 M185.964 145.000 C 185.964 145.204,187.030 147.454,188.333 150.000 C 189.636 152.546,190.702 154.463,190.702 154.259 C 190.702 154.056,189.636 151.806,188.333 149.259 C 187.030 146.713,185.964 144.796,185.964 145.000 M178.604 182.963 C 178.604 183.676,178.681 183.968,178.774 183.611 C 178.867 183.255,178.867 182.671,178.774 182.315 C 178.681 181.958,178.604 182.250,178.604 182.963 M217.864 184.444 C 217.864 185.157,217.940 185.449,218.033 185.093 C 218.126 184.736,218.126 184.153,218.033 183.796 C 217.940 183.440,217.864 183.731,217.864 184.444 M178.975 186.296 C 178.975 187.009,179.051 187.301,179.144 186.944 C 179.237 186.588,179.237 186.005,179.144 185.648 C 179.051 185.292,178.975 185.583,178.975 186.296 M179.345 189.630 C 179.345 190.343,179.421 190.634,179.515 190.278 C 179.608 189.921,179.608 189.338,179.515 188.981 C 179.421 188.625,179.345 188.917,179.345 189.630 M179.716 192.963 C 179.716 193.676,179.792 193.968,179.885 193.611 C 179.978 193.255,179.978 192.671,179.885 192.315 C 179.792 191.958,179.716 192.250,179.716 192.963 M180.456 199.259 C 180.456 199.972,180.533 200.264,180.626 199.907 C 180.719 199.551,180.719 198.968,180.626 198.611 C 180.533 198.255,180.456 198.546,180.456 199.259 M180.827 202.222 C 180.827 202.935,180.903 203.227,180.996 202.870 C 181.089 202.514,181.089 201.931,180.996 201.574 C 180.903 201.218,180.827 201.509,180.827 202.222 M181.205 205.741 C 181.209 206.556,181.284 206.845,181.373 206.385 C 181.462 205.924,181.458 205.257,181.366 204.903 C 181.273 204.549,181.200 204.926,181.205 205.741 M181.587 209.815 C 181.590 210.833,181.662 211.206,181.747 210.643 C 181.832 210.080,181.830 209.247,181.742 208.791 C 181.654 208.336,181.585 208.796,181.587 209.815 M181.976 215.556 C 181.976 217.083,182.042 217.708,182.122 216.944 C 182.202 216.181,182.202 214.931,182.122 214.167 C 182.042 213.403,181.976 214.028,181.976 215.556 M182.222 240.630 C 182.120 250.448,182.164 258.355,182.318 258.200 C 182.473 258.045,182.557 250.012,182.504 240.348 L 182.407 222.778 182.222 240.630 " stroke="none" fill="#3cae9d" fill-rule="evenodd"></path><path id="path4" d="M152.773 200.000 C 152.773 232.083,152.817 245.208,152.870 229.167 C 152.924 213.125,152.924 186.875,152.870 170.833 C 152.817 154.792,152.773 167.917,152.773 200.000 M217.951 161.852 C 217.951 172.954,217.998 177.495,218.055 171.944 C 218.113 166.394,218.113 157.310,218.055 151.759 C 217.998 146.208,217.951 150.750,217.951 161.852 M247.218 200.000 C 247.218 231.880,247.261 244.921,247.315 228.981 C 247.368 213.042,247.368 186.958,247.315 171.019 C 247.261 155.079,247.218 168.120,247.218 200.000 M181.197 208.889 C 181.197 209.602,181.273 209.894,181.366 209.537 C 181.460 209.181,181.460 208.597,181.366 208.241 C 181.273 207.884,181.197 208.176,181.197 208.889 M181.582 214.074 C 181.582 214.991,181.655 215.366,181.743 214.907 C 181.831 214.449,181.831 213.699,181.743 213.241 C 181.655 212.782,181.582 213.157,181.582 214.074 M182.024 239.815 C 182.024 250.000,182.071 254.113,182.129 248.956 C 182.188 243.798,182.187 235.465,182.129 230.437 C 182.071 225.410,182.024 229.630,182.024 239.815 M199.293 225.000 C 199.293 225.204,199.694 226.120,200.185 227.037 C 200.676 227.954,201.078 228.537,201.078 228.333 C 201.078 228.130,200.676 227.213,200.185 226.296 C 199.694 225.380,199.293 224.796,199.293 225.000 " stroke="none" fill="#327474" fill-rule="evenodd"></path><path id="path0" d="M152.963 200.000 L 152.963 258.148 167.440 258.148 L 181.917 258.148 181.737 234.537 C 181.604 217.197,181.413 209.696,181.015 206.296 C 177.855 179.254,177.849 179.182,178.878 180.212 C 179.070 180.403,181.713 186.392,184.753 193.520 C 188.740 202.867,193.849 213.685,203.076 232.315 L 215.870 258.148 231.454 258.148 L 247.037 258.148 247.037 200.000 L 247.037 141.852 232.564 141.852 L 218.092 141.852 218.258 166.019 C 218.358 180.612,218.587 191.432,218.836 193.333 C 220.118 203.120,221.908 219.697,221.706 219.899 C 221.233 220.372,220.685 219.231,215.429 206.850 C 211.534 197.672,206.568 187.156,197.109 168.056 L 184.133 141.852 168.548 141.852 L 152.963 141.852 152.963 200.000 " stroke="none" fill="#1c2c3c" fill-rule="evenodd"></path><path id="path1" d="M184.444 92.639 C 170.722 95.340,164.213 97.257,155.741 101.094 C 152.193 102.701,147.429 105.151,146.239 105.981 C 145.698 106.358,145.140 106.667,144.997 106.667 C 144.232 106.667,134.917 113.243,130.323 117.027 C 127.695 119.191,118.639 128.261,117.019 130.352 C 116.316 131.259,115.319 132.509,114.803 133.130 C 104.408 145.649,96.693 163.098,93.096 182.222 C 92.067 187.691,91.959 209.513,92.928 216.090 C 95.268 231.966,101.007 246.778,110.086 260.370 C 112.356 263.768,113.946 265.876,117.766 270.549 C 122.496 276.335,133.608 286.010,141.512 291.222 C 166.940 307.993,201.232 312.552,232.593 303.330 C 241.842 300.610,253.239 294.971,262.037 288.762 C 265.355 286.420,266.505 285.540,270.552 282.239 C 271.834 281.193,280.372 272.650,282.053 270.731 C 294.677 256.317,303.726 236.817,306.856 217.276 C 307.844 211.110,308.209 190.893,307.419 186.111 C 307.251 185.093,306.916 183.009,306.676 181.481 C 304.255 166.081,294.394 143.316,286.370 134.600 C 286.010 134.209,285.471 133.538,285.172 133.109 C 280.024 125.705,258.297 106.667,254.995 106.667 C 254.857 106.667,254.302 106.358,253.761 105.981 C 251.754 104.581,242.815 100.259,239.815 99.238 C 239.000 98.961,238.166 98.616,237.962 98.472 C 236.566 97.486,224.667 94.382,216.111 92.773 C 213.090 92.205,187.207 92.095,184.444 92.639 M197.527 167.927 C 207.444 187.913,211.950 197.451,215.973 206.974 C 218.901 213.904,221.346 219.439,221.406 219.272 C 221.467 219.106,220.850 213.244,220.036 206.244 C 217.886 187.755,217.778 185.651,217.778 162.519 L 217.778 141.481 232.553 141.481 C 245.684 141.481,247.353 141.547,247.553 142.067 C 247.893 142.954,247.811 257.522,247.470 258.060 C 247.237 258.426,243.763 258.506,231.352 258.430 L 215.531 258.333 202.285 231.481 C 193.123 212.910,187.449 200.895,183.885 192.517 C 181.050 185.855,178.688 180.448,178.636 180.500 C 178.583 180.553,179.038 184.920,179.647 190.205 C 180.255 195.490,181.001 201.981,181.304 204.630 C 182.165 212.167,182.639 227.353,182.518 243.519 L 182.407 258.333 167.500 258.430 L 152.593 258.527 152.593 200.004 L 152.593 141.481 168.499 141.481 L 184.405 141.481 197.527 167.927 " stroke="none" fill="#44ccb4" fill-rule="evenodd"></path><path id="path2" d="M181.958 219.815 C 181.961 220.833,182.032 221.206,182.118 220.643 C 182.203 220.080,182.200 219.247,182.113 218.791 C 182.025 218.336,181.955 218.796,181.958 219.815 M231.481 258.148 L 215.741 258.345 231.367 258.432 C 241.479 258.488,247.074 258.388,247.222 258.148 C 247.348 257.944,247.400 257.817,247.337 257.864 C 247.274 257.912,240.139 258.040,231.481 258.148 M160.093 258.425 C 164.116 258.485,170.699 258.485,174.722 258.425 C 178.745 258.366,175.454 258.317,167.407 258.317 C 159.361 258.317,156.069 258.366,160.093 258.425 " stroke="none" fill="#359085" fill-rule="evenodd"></path><path id="path3" d="M158.148 141.748 C 172.811 142.007,184.729 142.012,184.573 141.759 C 184.478 141.606,177.202 141.519,168.404 141.564 C 159.606 141.609,154.991 141.692,158.148 141.748 M225.093 141.759 C 229.218 141.818,235.968 141.818,240.093 141.759 C 244.218 141.699,240.843 141.650,232.593 141.650 C 224.343 141.650,220.968 141.699,225.093 141.759 M247.588 200.000 C 247.588 231.880,247.632 244.921,247.685 228.981 C 247.739 213.042,247.739 186.958,247.685 171.019 C 247.632 155.079,247.588 168.120,247.588 200.000 M185.964 145.000 C 185.964 145.204,187.030 147.454,188.333 150.000 C 189.636 152.546,190.702 154.463,190.702 154.259 C 190.702 154.056,189.636 151.806,188.333 149.259 C 187.030 146.713,185.964 144.796,185.964 145.000 M178.604 182.963 C 178.604 183.676,178.681 183.968,178.774 183.611 C 178.867 183.255,178.867 182.671,178.774 182.315 C 178.681 181.958,178.604 182.250,178.604 182.963 M217.864 184.444 C 217.864 185.157,217.940 185.449,218.033 185.093 C 218.126 184.736,218.126 184.153,218.033 183.796 C 217.940 183.440,217.864 183.731,217.864 184.444 M178.975 186.296 C 178.975 187.009,179.051 187.301,179.144 186.944 C 179.237 186.588,179.237 186.005,179.144 185.648 C 179.051 185.292,178.975 185.583,178.975 186.296 M179.345 189.630 C 179.345 190.343,179.421 190.634,179.515 190.278 C 179.608 189.921,179.608 189.338,179.515 188.981 C 179.421 188.625,179.345 188.917,179.345 189.630 M179.716 192.963 C 179.716 193.676,179.792 193.968,179.885 193.611 C 179.978 193.255,179.978 192.671,179.885 192.315 C 179.792 191.958,179.716 192.250,179.716 192.963 M180.456 199.259 C 180.456 199.972,180.533 200.264,180.626 199.907 C 180.719 199.551,180.719 198.968,180.626 198.611 C 180.533 198.255,180.456 198.546,180.456 199.259 M180.827 202.222 C 180.827 202.935,180.903 203.227,180.996 202.870 C 181.089 202.514,181.089 201.931,180.996 201.574 C 180.903 201.218,180.827 201.509,180.827 202.222 M181.205 205.741 C 181.209 206.556,181.284 206.845,181.373 206.385 C 181.462 205.924,181.458 205.257,181.366 204.903 C 181.273 204.549,181.200 204.926,181.205 205.741 M181.587 209.815 C 181.590 210.833,181.662 211.206,181.747 210.643 C 181.832 210.080,181.830 209.247,181.742 208.791 C 181.654 208.336,181.585 208.796,181.587 209.815 M181.976 215.556 C 181.976 217.083,182.042 217.708,182.122 216.944 C 182.202 216.181,182.202 214.931,182.122 214.167 C 182.042 213.403,181.976 214.028,181.976 215.556 M182.222 240.630 C 182.120 250.448,182.164 258.355,182.318 258.200 C 182.473 258.045,182.557 250.012,182.504 240.348 L 182.407 222.778 182.222 240.630 " stroke="none" fill="#3cae9d" fill-rule="evenodd"></path><path id="path4" d="M152.773 200.000 C 152.773 232.083,152.817 245.208,152.870 229.167 C 152.924 213.125,152.924 186.875,152.870 170.833 C 152.817 154.792,152.773 167.917,152.773 200.000 M217.951 161.852 C 217.951 172.954,217.998 177.495,218.055 171.944 C 218.113 166.394,218.113 157.310,218.055 151.759 C 217.998 146.208,217.951 150.750,217.951 161.852 M247.218 200.000 C 247.218 231.880,247.261 244.921,247.315 228.981 C 247.368 213.042,247.368 186.958,247.315 171.019 C 247.261 155.079,247.218 168.120,247.218 200.000 M181.197 208.889 C 181.197 209.602,181.273 209.894,181.366 209.537 C 181.460 209.181,181.460 208.597,181.366 208.241 C 181.273 207.884,181.197 208.176,181.197 208.889 M181.582 214.074 C 181.582 214.991,181.655 215.366,181.743 214.907 C 181.831 214.449,181.831 213.699,181.743 213.241 C 181.655 212.782,181.582 213.157,181.582 214.074 M182.024 239.815 C 182.024 250.000,182.071 254.113,182.129 248.956 C 182.188 243.798,182.187 235.465,182.129 230.437 C 182.071 225.410,182.024 229.630,182.024 239.815 M199.293 225.000 C 199.293 225.204,199.694 226.120,200.185 227.037 C 200.676 227.954,201.078 228.537,201.078 228.333 C 201.078 228.130,200.676 227.213,200.185 226.296 C 199.694 225.380,199.293 224.796,199.293 225.000 " stroke="none" fill="#327474" fill-rule="evenodd"></path></g></svg>