<svg id="svg" version="1.1" xmlns="http://www.w3.org/2000/svg" xmlns:xlink="http://www.w3.org/1999/xlink" width="400" height="400" viewBox="0, 0, 400,400"><g id="svgg"><path id="path0" d="M112.394 92.685 C 112.297 92.940,112.260 141.231,112.313 200.000 L 112.407 306.852 139.159 306.947 L 165.911 307.042 166.155 306.068 C 166.541 304.532,166.020 230.355,165.588 225.185 C 165.375 222.639,165.019 218.389,164.797 215.741 C 164.424 211.280,163.428 202.044,162.561 195.000 C 162.360 193.370,162.037 190.620,161.842 188.889 C 161.648 187.157,161.319 184.324,161.111 182.593 C 159.797 171.628,158.994 163.539,159.170 163.056 C 159.675 161.669,160.684 162.678,162.037 165.926 C 162.588 167.250,163.336 169.000,163.698 169.815 C 164.060 170.630,166.228 175.713,168.515 181.111 C 170.803 186.509,172.899 191.426,173.173 192.037 C 173.447 192.648,175.413 197.231,177.543 202.222 C 179.672 207.213,186.284 221.130,192.236 233.148 C 198.188 245.167,207.838 264.667,213.680 276.481 C 219.521 288.296,225.309 299.963,226.541 302.407 L 228.781 306.852 257.724 306.947 L 286.667 307.042 286.667 199.632 L 286.667 92.222 259.815 92.222 L 232.963 92.222 232.983 127.130 C 233.009 173.825,233.145 176.432,237.410 212.037 C 237.630 213.870,237.979 216.870,238.185 218.704 C 238.392 220.537,238.706 223.287,238.882 224.815 C 240.794 241.381,240.218 241.137,232.343 222.037 C 231.419 219.796,230.366 217.296,230.002 216.481 C 229.638 215.667,227.972 211.750,226.299 207.778 C 224.626 203.806,222.795 199.472,222.229 198.148 C 221.664 196.824,220.572 194.241,219.803 192.407 C 219.033 190.574,210.495 173.157,200.828 153.704 C 191.161 134.250,180.342 112.458,176.784 105.278 L 170.317 92.222 141.443 92.222 C 118.685 92.222,112.532 92.320,112.394 92.685 " stroke="none" fill="#1c2c3c" fill-rule="evenodd"></path><path id="path1" d="M172.685 0.257 C 172.023 0.345,171.481 0.573,171.481 0.764 C 171.481 0.955,171.305 1.111,171.089 1.111 C 170.874 1.111,170.800 0.944,170.926 0.741 C 171.052 0.537,170.988 0.370,170.784 0.370 C 170.581 0.370,170.311 0.537,170.185 0.741 C 170.059 0.944,168.976 1.111,167.778 1.111 C 166.580 1.111,165.496 1.278,165.370 1.481 C 165.244 1.685,164.735 1.852,164.237 1.852 C 163.740 1.852,163.333 2.019,163.333 2.222 C 163.333 2.426,163.157 2.593,162.941 2.593 C 162.725 2.593,162.662 2.409,162.801 2.185 C 162.984 1.889,162.845 1.889,162.291 2.185 C 161.873 2.409,161.112 2.593,160.602 2.593 C 160.091 2.593,159.563 2.771,159.429 2.988 C 159.294 3.206,158.930 3.286,158.619 3.167 C 158.309 3.048,157.840 3.128,157.579 3.345 C 157.273 3.598,157.023 3.610,156.879 3.377 C 156.738 3.149,156.292 3.201,155.688 3.514 C 155.157 3.790,154.493 3.927,154.213 3.820 C 153.933 3.712,153.704 3.790,153.704 3.993 C 153.704 4.196,153.495 4.354,153.241 4.345 C 151.415 4.277,149.988 4.496,150.185 4.815 C 150.325 5.041,149.764 5.185,148.747 5.185 C 147.831 5.185,146.978 5.352,146.852 5.556 C 146.726 5.759,146.249 5.926,145.793 5.926 C 145.336 5.926,144.797 6.092,144.595 6.294 C 144.392 6.497,143.776 6.700,143.224 6.745 C 142.673 6.791,142.222 6.953,142.222 7.106 C 142.222 7.259,141.970 7.287,141.662 7.169 C 141.354 7.051,140.891 7.129,140.634 7.342 C 140.377 7.556,139.719 7.790,139.171 7.863 C 138.624 7.937,138.059 8.114,137.915 8.258 C 137.772 8.401,137.256 8.519,136.768 8.519 C 136.272 8.519,135.983 8.681,136.111 8.889 C 136.320 9.227,135.306 9.435,134.167 9.287 C 133.912 9.254,133.704 9.401,133.704 9.613 C 133.704 9.826,133.380 10.000,132.985 10.000 C 132.589 10.000,132.163 10.167,132.037 10.370 C 131.911 10.574,131.469 10.741,131.054 10.741 C 130.639 10.741,129.785 11.107,129.157 11.554 C 128.520 12.008,128.157 12.131,128.338 11.832 C 128.604 11.390,128.561 11.377,128.093 11.756 C 127.780 12.009,127.415 12.106,127.281 11.972 C 127.147 11.838,127.037 11.951,127.037 12.222 C 127.037 12.494,126.927 12.606,126.793 12.472 C 126.659 12.338,126.326 12.414,126.053 12.641 C 125.779 12.868,125.556 12.944,125.556 12.810 C 125.556 12.676,125.181 12.775,124.722 13.029 C 124.264 13.284,123.806 13.513,123.704 13.537 C 123.166 13.668,121.924 14.193,121.070 14.649 C 120.539 14.933,119.997 15.059,119.867 14.929 C 119.736 14.798,119.630 14.886,119.630 15.123 C 119.630 15.361,119.310 15.556,118.920 15.556 C 118.529 15.556,118.148 15.741,118.072 15.968 C 117.997 16.195,117.503 16.428,116.976 16.486 C 115.711 16.625,114.446 17.322,114.439 17.883 C 114.435 18.166,114.300 18.127,114.074 17.778 C 113.835 17.407,113.713 17.377,113.709 17.685 C 113.706 17.940,113.380 18.148,112.984 18.148 C 112.588 18.148,112.005 18.519,111.688 18.971 C 111.371 19.424,111.111 19.579,111.111 19.315 C 111.111 18.958,110.969 18.978,110.553 19.394 C 110.247 19.700,109.663 20.057,109.257 20.186 C 108.851 20.315,108.519 20.576,108.519 20.766 C 108.519 20.956,108.116 21.111,107.623 21.111 C 107.131 21.111,106.670 21.287,106.598 21.502 C 106.527 21.716,106.166 21.937,105.797 21.991 C 105.428 22.045,104.975 22.327,104.791 22.619 C 104.503 23.074,104.455 23.071,104.450 22.603 C 104.446 22.249,104.233 22.359,103.841 22.918 C 103.369 23.593,103.170 23.671,102.921 23.278 C 102.672 22.885,102.603 22.910,102.598 23.396 C 102.595 23.781,102.171 24.108,101.481 24.259 C 100.870 24.393,100.370 24.657,100.370 24.844 C 100.370 25.032,100.111 25.185,99.793 25.185 C 99.475 25.185,99.321 25.356,99.450 25.565 C 99.579 25.773,99.547 25.920,99.379 25.891 C 98.626 25.760,97.790 25.963,97.326 26.389 C 97.048 26.644,96.494 27.064,96.095 27.323 C 93.747 28.851,93.110 29.232,92.778 29.315 C 92.574 29.365,92.103 29.748,91.731 30.166 C 91.359 30.584,91.179 30.676,91.332 30.370 C 91.485 30.065,91.144 30.271,90.575 30.828 C 90.006 31.385,89.394 31.750,89.215 31.639 C 89.035 31.528,88.889 31.624,88.889 31.852 C 88.889 32.080,88.718 32.160,88.509 32.031 C 88.301 31.902,88.176 32.010,88.232 32.270 C 88.288 32.530,88.058 32.751,87.722 32.760 C 87.386 32.770,86.686 33.236,86.166 33.796 C 85.646 34.356,84.953 34.815,84.625 34.815 C 84.298 34.815,84.122 34.963,84.233 35.143 C 84.426 35.456,83.117 36.061,82.472 35.957 C 82.305 35.930,82.275 36.082,82.407 36.295 C 82.540 36.511,82.062 36.926,81.323 37.235 C 80.595 37.539,80.000 37.980,80.000 38.215 C 80.000 38.450,79.891 38.533,79.758 38.400 C 79.625 38.267,79.151 38.654,78.704 39.259 C 78.257 39.865,77.793 40.262,77.673 40.142 C 77.553 40.023,77.112 40.165,76.693 40.458 C 76.274 40.752,76.041 41.102,76.175 41.237 C 76.310 41.371,76.132 41.481,75.781 41.481 C 75.429 41.481,75.241 41.643,75.363 41.841 C 75.486 42.038,74.995 42.446,74.274 42.748 C 73.553 43.049,72.963 43.397,72.963 43.521 C 72.963 43.646,73.171 43.642,73.426 43.513 C 73.681 43.384,73.556 43.535,73.148 43.849 C 72.741 44.163,72.199 44.598,71.944 44.817 C 71.690 45.035,71.481 45.090,71.481 44.938 C 71.481 44.787,70.835 45.356,70.045 46.203 C 69.255 47.051,68.524 47.659,68.420 47.556 C 68.317 47.453,67.922 47.763,67.542 48.246 C 67.163 48.729,66.685 49.196,66.481 49.284 C 66.278 49.372,66.153 49.569,66.204 49.722 C 66.255 49.875,66.171 49.980,66.019 49.956 C 65.300 49.843,64.791 50.033,64.984 50.344 C 65.100 50.533,64.851 50.797,64.429 50.931 C 64.007 51.065,63.499 51.600,63.302 52.120 C 63.104 52.640,62.849 52.973,62.736 52.859 C 62.622 52.746,62.168 52.962,61.728 53.341 C 61.287 53.719,60.525 54.373,60.036 54.792 C 59.546 55.212,59.292 55.556,59.471 55.556 C 59.650 55.556,58.892 56.431,57.786 57.500 C 56.680 58.569,55.631 59.399,55.453 59.343 C 55.275 59.287,55.225 59.394,55.341 59.582 C 55.457 59.769,55.292 60.022,54.974 60.144 C 54.657 60.266,54.490 60.514,54.602 60.696 C 54.714 60.878,54.470 61.115,54.059 61.222 C 53.648 61.330,53.359 61.557,53.415 61.727 C 53.472 61.898,53.389 62.075,53.231 62.121 C 52.782 62.252,51.111 64.143,51.111 64.520 C 51.111 64.706,50.963 64.767,50.783 64.656 C 50.602 64.544,50.227 64.733,49.949 65.075 C 49.516 65.610,49.523 65.657,50.000 65.409 C 50.306 65.251,50.139 65.465,49.630 65.886 C 49.120 66.306,48.821 66.654,48.965 66.658 C 49.108 66.663,48.858 67.051,48.409 67.522 C 47.960 67.992,47.378 68.700,47.116 69.096 C 46.854 69.491,46.761 69.565,46.909 69.259 C 47.141 68.782,47.091 68.775,46.557 69.209 C 46.214 69.486,46.020 69.853,46.126 70.023 C 46.231 70.194,45.965 70.522,45.534 70.752 C 45.104 70.983,44.848 71.268,44.966 71.386 C 45.084 71.504,44.844 71.836,44.432 72.125 C 44.020 72.413,43.386 73.261,43.022 74.010 C 42.659 74.758,42.164 75.329,41.922 75.278 C 41.680 75.227,41.481 75.445,41.481 75.763 C 41.481 76.080,41.333 76.248,41.152 76.136 C 40.970 76.024,40.546 76.514,40.208 77.225 C 39.871 77.937,39.436 78.519,39.242 78.519 C 39.048 78.519,38.889 78.832,38.889 79.216 C 38.889 79.602,38.558 80.000,38.148 80.107 C 37.697 80.225,37.407 80.613,37.407 81.098 C 37.407 81.537,37.241 81.793,37.037 81.667 C 36.833 81.541,36.667 81.698,36.667 82.015 C 36.667 82.333,36.503 82.593,36.303 82.593 C 36.104 82.593,35.836 83.008,35.708 83.516 C 35.581 84.024,35.328 84.347,35.146 84.235 C 34.964 84.122,34.815 84.298,34.815 84.625 C 34.815 84.953,34.401 85.604,33.895 86.073 C 33.389 86.542,33.057 87.008,33.158 87.108 C 33.258 87.209,32.927 87.738,32.421 88.284 C 31.915 88.830,31.538 89.351,31.584 89.441 C 31.629 89.532,31.370 89.952,31.007 90.376 C 30.645 90.799,30.462 91.330,30.602 91.556 C 30.755 91.804,30.686 91.862,30.428 91.702 C 30.172 91.544,30.000 91.678,30.000 92.037 C 30.000 92.367,29.829 92.531,29.620 92.402 C 29.412 92.273,29.274 92.305,29.315 92.472 C 29.456 93.058,28.407 94.790,28.046 94.566 C 27.846 94.443,27.760 94.573,27.855 94.856 C 27.950 95.139,27.763 95.591,27.440 95.861 C 26.975 96.249,26.968 96.297,27.407 96.092 C 27.713 95.949,27.501 96.280,26.936 96.827 C 26.372 97.375,25.995 97.960,26.099 98.129 C 26.203 98.297,26.040 98.641,25.737 98.892 C 25.433 99.144,25.185 99.673,25.185 100.067 C 25.185 100.462,25.054 100.703,24.893 100.604 C 24.733 100.505,24.383 100.953,24.115 101.601 C 22.999 104.303,22.577 105.107,22.044 105.550 C 21.735 105.807,21.481 106.206,21.481 106.437 C 21.481 106.668,21.065 107.640,20.556 108.597 C 20.046 109.554,19.630 110.594,19.630 110.909 C 19.630 111.224,19.494 111.481,19.328 111.481 C 19.163 111.481,18.799 112.062,18.521 112.772 C 18.242 113.483,17.934 113.983,17.836 113.885 C 17.603 113.652,16.384 116.383,16.230 117.481 C 16.165 117.950,15.819 118.656,15.463 119.051 C 15.106 119.446,14.815 120.071,14.815 120.440 C 14.815 120.809,14.630 121.111,14.405 121.111 C 14.179 121.111,14.086 121.349,14.198 121.640 C 14.309 121.930,14.153 122.374,13.850 122.625 C 13.547 122.876,13.383 123.300,13.486 123.567 C 13.588 123.834,13.457 124.268,13.195 124.530 C 12.932 124.793,12.746 125.397,12.781 125.872 C 12.816 126.347,12.611 126.825,12.327 126.934 C 12.042 127.043,11.897 127.361,12.004 127.640 C 12.111 127.920,12.038 128.148,11.840 128.148 C 11.643 128.148,11.481 128.472,11.481 128.867 C 11.481 129.262,11.315 129.689,11.111 129.815 C 10.907 129.941,10.741 130.369,10.741 130.768 C 10.741 131.166,10.586 131.781,10.397 132.135 C 9.997 132.884,9.561 134.049,9.417 134.751 C 9.362 135.022,9.195 135.522,9.046 135.862 C 8.897 136.203,8.707 136.898,8.624 137.407 C 8.541 137.917,8.316 138.492,8.125 138.685 C 7.934 138.879,7.778 139.411,7.778 139.867 C 7.778 140.324,7.633 140.787,7.456 140.896 C 7.279 141.005,7.022 141.798,6.884 142.659 C 6.747 143.519,6.433 144.471,6.187 144.775 C 5.836 145.210,5.839 145.268,6.204 145.049 C 6.738 144.728,6.829 145.238,6.330 145.759 C 5.825 146.287,4.898 149.739,5.103 150.329 C 5.211 150.643,5.118 150.743,4.863 150.585 C 4.589 150.416,4.444 150.696,4.444 151.398 C 4.444 151.987,4.322 152.592,4.172 152.742 C 4.022 152.891,3.850 153.544,3.790 154.192 C 3.730 154.840,3.658 155.579,3.630 155.833 C 3.603 156.088,3.449 156.296,3.289 156.296 C 3.129 156.296,3.061 156.794,3.138 157.403 C 3.215 158.011,3.124 158.604,2.935 158.721 C 2.747 158.837,2.593 159.412,2.593 159.998 C 2.593 160.584,2.426 161.500,2.223 162.034 C 1.978 162.680,1.978 162.929,2.223 162.777 C 2.426 162.652,2.593 162.725,2.593 162.941 C 2.593 163.157,2.426 163.333,2.222 163.333 C 2.019 163.333,1.849 164.208,1.846 165.278 C 1.842 166.670,1.739 167.064,1.481 166.667 C 1.231 166.280,1.121 166.926,1.117 168.796 C 1.114 170.273,0.970 171.481,0.798 171.481 C 0.018 171.481,-0.151 224.828,0.621 226.923 C 0.956 227.829,0.956 228.146,0.621 228.282 C 0.305 228.411,0.312 228.468,0.648 228.489 C 0.947 228.508,1.111 229.119,1.111 230.210 C 1.111 231.140,1.259 232.181,1.440 232.524 C 1.620 232.867,1.860 233.981,1.971 235.000 C 2.313 238.113,2.679 240.167,2.962 240.556 C 3.111 240.759,3.190 241.343,3.137 241.852 C 3.085 242.361,3.249 243.111,3.501 243.519 C 3.753 243.926,3.897 244.705,3.822 245.250 C 3.747 245.795,3.856 246.347,4.065 246.476 C 4.274 246.605,4.444 247.201,4.444 247.800 C 4.444 248.399,4.575 248.889,4.734 248.889 C 4.893 248.889,5.061 249.338,5.106 249.887 C 5.152 250.435,5.396 251.016,5.650 251.177 C 5.995 251.396,5.971 251.473,5.556 251.481 C 5.151 251.490,5.122 251.571,5.451 251.779 C 5.699 251.937,5.943 252.601,5.993 253.255 C 6.043 253.909,6.215 254.444,6.375 254.444 C 6.535 254.444,6.667 254.833,6.667 255.309 C 6.667 255.784,6.792 256.298,6.944 256.451 C 7.097 256.603,7.243 257.048,7.269 257.438 C 7.379 259.128,7.424 259.293,7.726 259.106 C 7.901 258.998,7.999 259.322,7.944 259.825 C 7.888 260.329,8.005 260.741,8.203 260.741 C 8.400 260.741,8.466 260.896,8.349 261.086 C 8.232 261.275,8.317 261.542,8.538 261.679 C 8.759 261.815,8.850 262.160,8.741 262.445 C 8.631 262.730,8.703 262.963,8.901 262.963 C 9.098 262.963,9.259 263.269,9.259 263.642 C 9.259 264.015,9.377 264.438,9.520 264.582 C 9.664 264.725,9.837 265.260,9.905 265.770 C 9.974 266.280,10.356 267.232,10.754 267.886 C 11.153 268.539,11.479 269.542,11.480 270.114 C 11.481 270.766,11.631 271.062,11.882 270.907 C 12.122 270.759,12.248 270.935,12.197 271.348 C 12.150 271.727,12.407 272.704,12.768 273.519 C 13.128 274.333,13.461 275.167,13.508 275.370 C 13.682 276.136,14.194 277.303,15.541 280.000 C 16.304 281.528,16.856 282.986,16.767 283.241 C 16.678 283.495,16.785 283.704,17.006 283.704 C 17.227 283.704,17.407 284.130,17.407 284.651 C 17.407 285.189,17.568 285.500,17.778 285.370 C 18.106 285.167,18.329 285.946,18.183 286.787 C 18.154 286.955,18.301 286.987,18.509 286.858 C 18.839 286.654,19.066 287.395,18.933 288.241 C 18.909 288.394,19.065 288.519,19.280 288.519 C 19.495 288.519,20.088 289.477,20.599 290.648 C 21.109 291.819,21.683 293.067,21.874 293.421 C 22.066 293.775,22.222 294.248,22.222 294.473 C 22.222 294.697,22.597 295.212,23.056 295.617 C 23.514 296.022,23.639 296.224,23.333 296.067 C 23.028 295.910,23.238 296.356,23.800 297.058 C 24.363 297.759,25.089 298.957,25.414 299.720 C 25.746 300.499,26.175 301.001,26.393 300.866 C 26.627 300.722,26.670 300.806,26.502 301.077 C 26.346 301.331,26.508 301.842,26.873 302.246 C 27.230 302.640,27.376 302.963,27.197 302.963 C 27.018 302.963,27.223 303.208,27.651 303.509 C 28.080 303.809,28.685 304.692,28.997 305.471 C 29.309 306.251,30.170 307.614,30.911 308.501 C 31.652 309.388,32.169 310.346,32.059 310.631 C 31.950 310.916,31.983 311.075,32.134 310.984 C 32.447 310.794,33.104 311.481,33.239 312.140 C 33.289 312.384,33.706 313.016,34.165 313.544 C 34.624 314.072,35.000 314.638,35.000 314.803 C 35.000 314.967,35.417 315.467,35.926 315.912 C 36.435 316.358,36.602 316.613,36.296 316.478 C 35.991 316.343,36.157 316.570,36.667 316.984 C 37.176 317.397,37.607 317.870,37.625 318.034 C 37.710 318.829,38.391 319.881,39.331 320.673 C 39.903 321.154,40.370 321.783,40.370 322.070 C 40.370 322.357,40.620 322.593,40.926 322.593 C 41.427 322.593,41.646 323.032,41.525 323.796 C 41.501 323.949,41.690 324.075,41.944 324.077 C 42.199 324.078,42.793 324.754,43.264 325.579 C 43.734 326.403,44.359 327.170,44.652 327.282 C 44.945 327.395,45.185 327.643,45.185 327.835 C 45.185 328.027,45.626 328.592,46.165 329.092 C 46.704 329.591,46.996 330.000,46.813 330.001 C 46.631 330.001,47.034 330.474,47.708 331.050 C 48.383 331.627,49.300 332.703,49.745 333.441 C 50.191 334.180,50.722 334.807,50.926 334.836 C 51.130 334.865,51.255 335.039,51.204 335.222 C 51.153 335.406,51.306 335.514,51.544 335.463 C 51.782 335.412,52.180 335.760,52.428 336.237 C 52.742 336.840,52.939 336.953,53.077 336.607 C 53.218 336.255,53.283 336.287,53.304 336.721 C 53.333 337.321,62.322 346.667,62.870 346.667 C 63.024 346.667,63.650 347.200,64.260 347.851 C 64.871 348.503,65.120 348.893,64.815 348.718 C 64.483 348.528,64.384 348.536,64.568 348.737 C 64.738 348.922,65.029 349.095,65.216 349.120 C 65.403 349.146,65.732 349.188,65.948 349.213 C 66.164 349.238,66.237 349.426,66.111 349.630 C 65.985 349.833,66.112 350.000,66.393 350.000 C 66.675 350.000,67.557 350.750,68.354 351.667 C 69.151 352.583,70.021 353.333,70.289 353.333 C 70.556 353.333,71.191 353.750,71.700 354.259 C 72.210 354.769,72.748 355.185,72.897 355.185 C 73.047 355.185,73.435 355.477,73.760 355.833 C 74.882 357.062,76.483 358.383,77.153 358.633 C 77.522 358.771,77.718 359.056,77.589 359.266 C 77.459 359.476,77.490 359.608,77.658 359.560 C 78.163 359.415,79.665 360.384,79.457 360.721 C 79.351 360.893,79.521 361.132,79.836 361.253 C 80.213 361.398,80.329 361.316,80.175 361.014 C 80.046 360.762,80.370 361.023,80.896 361.595 C 81.422 362.166,81.852 362.535,81.852 362.413 C 81.852 362.193,82.415 362.605,83.699 363.765 C 84.075 364.105,84.456 364.309,84.546 364.219 C 84.636 364.130,84.920 364.310,85.178 364.621 C 85.435 364.931,85.886 365.185,86.178 365.185 C 86.471 365.185,86.616 365.337,86.501 365.524 C 86.386 365.710,86.793 366.084,87.405 366.355 C 88.018 366.626,88.519 366.983,88.519 367.149 C 88.519 367.315,88.685 367.348,88.889 367.222 C 89.093 367.096,89.259 367.139,89.259 367.317 C 89.259 367.496,89.926 368.016,90.741 368.474 C 91.556 368.932,92.222 369.490,92.222 369.715 C 92.222 369.940,92.334 370.012,92.470 369.876 C 92.606 369.739,93.052 369.920,93.460 370.277 C 93.987 370.738,94.109 370.765,93.881 370.370 C 93.606 369.893,93.649 369.885,94.184 370.320 C 94.527 370.597,94.698 371.001,94.565 371.216 C 94.417 371.456,94.550 371.520,94.909 371.383 C 95.235 371.257,95.579 371.378,95.685 371.655 C 95.790 371.929,96.365 372.260,96.962 372.391 C 97.559 372.522,98.386 372.944,98.799 373.329 C 99.213 373.714,99.648 373.932,99.767 373.814 C 99.885 373.695,100.084 373.861,100.207 374.183 C 100.331 374.505,100.626 374.693,100.864 374.602 C 101.102 374.511,101.716 374.826,102.229 375.302 C 102.743 375.778,103.368 376.100,103.618 376.016 C 103.869 375.933,104.175 376.127,104.298 376.449 C 104.421 376.770,104.671 376.941,104.854 376.828 C 105.036 376.715,105.185 376.799,105.185 377.015 C 105.185 377.231,105.612 377.407,106.133 377.407 C 106.671 377.407,106.982 377.568,106.852 377.778 C 106.726 377.981,106.944 378.148,107.336 378.148 C 107.728 378.148,108.472 378.481,108.990 378.889 C 109.508 379.296,110.166 379.630,110.452 379.630 C 110.737 379.630,111.318 379.953,111.743 380.348 C 112.167 380.743,112.614 380.966,112.736 380.844 C 112.858 380.722,113.278 380.911,113.668 381.264 C 114.058 381.617,114.931 381.993,115.608 382.100 C 116.284 382.206,117.283 382.611,117.828 382.999 C 118.373 383.386,119.094 383.704,119.431 383.704 C 119.768 383.704,119.941 383.870,119.815 384.074 C 119.689 384.278,119.896 384.444,120.274 384.444 C 120.653 384.444,121.163 384.644,121.407 384.889 C 121.652 385.133,121.852 385.213,121.852 385.067 C 121.852 384.920,122.519 385.140,123.333 385.556 C 124.148 385.971,124.815 386.204,124.815 386.073 C 124.815 385.942,125.058 386.037,125.354 386.283 C 125.651 386.529,126.067 386.623,126.280 386.492 C 126.493 386.360,126.667 386.429,126.667 386.645 C 126.667 386.861,127.083 387.037,127.593 387.037 C 128.102 387.037,128.519 387.204,128.519 387.407 C 128.519 387.611,128.935 387.778,129.444 387.778 C 129.954 387.778,130.370 387.972,130.370 388.210 C 130.370 388.448,130.475 388.538,130.603 388.410 C 130.730 388.282,131.314 388.425,131.899 388.728 C 132.484 389.031,132.963 389.165,132.963 389.026 C 132.963 388.888,133.325 389.092,133.767 389.480 C 134.210 389.868,134.447 389.973,134.295 389.713 C 134.138 389.444,134.574 389.553,135.307 389.965 C 136.016 390.363,136.661 390.623,136.741 390.543 C 136.821 390.463,137.629 390.617,138.536 390.886 C 139.443 391.155,140.417 391.293,140.700 391.195 C 141.013 391.085,141.113 391.178,140.956 391.433 C 140.785 391.710,141.082 391.852,141.830 391.852 C 142.453 391.852,142.963 392.019,142.963 392.222 C 142.963 392.426,143.370 392.593,143.867 392.593 C 144.364 392.593,144.874 392.759,145.000 392.963 C 145.126 393.167,145.602 393.333,146.059 393.333 C 146.515 393.333,147.113 393.542,147.388 393.796 C 147.793 394.172,147.831 394.155,147.593 393.704 C 147.354 393.252,147.392 393.235,147.798 393.611 C 148.072 393.866,148.670 394.074,149.126 394.074 C 149.583 394.074,150.037 394.204,150.135 394.364 C 150.234 394.523,150.850 394.694,151.505 394.744 C 152.159 394.794,152.875 394.946,153.095 395.081 C 153.315 395.217,153.944 395.338,154.494 395.349 C 155.044 395.361,155.619 395.495,155.772 395.648 C 155.924 395.801,156.678 395.926,157.447 395.926 C 158.216 395.926,158.948 396.093,159.074 396.296 C 159.200 396.500,160.010 396.667,160.874 396.667 C 161.738 396.667,162.669 396.875,162.943 397.130 C 163.349 397.506,163.387 397.488,163.148 397.037 C 162.909 396.586,162.948 396.568,163.353 396.944 C 163.627 397.199,164.569 397.407,165.444 397.407 C 166.320 397.407,167.038 397.532,167.039 397.685 C 167.039 397.838,167.907 398.012,168.965 398.072 C 170.024 398.133,171.065 398.310,171.279 398.467 C 172.517 399.376,226.815 399.383,227.990 398.474 C 228.208 398.305,229.244 398.136,230.291 398.099 C 231.337 398.062,232.107 397.891,232.001 397.720 C 231.895 397.548,232.558 397.407,233.475 397.407 C 234.391 397.407,235.228 397.268,235.333 397.098 C 235.438 396.927,236.309 396.758,237.268 396.722 C 238.226 396.686,239.192 396.509,239.413 396.329 C 239.634 396.149,240.731 395.900,241.852 395.775 C 244.547 395.476,245.625 395.311,246.296 395.097 C 246.602 394.999,247.447 394.729,248.174 394.497 C 248.902 394.264,250.013 394.074,250.644 394.074 C 251.274 394.074,251.848 393.900,251.919 393.687 C 251.990 393.474,252.462 393.278,252.968 393.251 C 253.475 393.224,254.072 393.065,254.297 392.898 C 254.521 392.730,255.134 392.558,255.659 392.514 C 256.184 392.471,256.532 392.304,256.433 392.144 C 256.334 391.983,256.743 391.852,257.343 391.852 C 257.943 391.852,258.899 391.610,259.468 391.315 C 260.037 391.020,260.665 390.879,260.864 391.002 C 261.074 391.132,261.106 391.032,260.941 390.766 C 260.737 390.434,260.954 390.329,261.717 390.390 C 262.301 390.437,263.194 390.304,263.704 390.096 C 264.213 389.887,264.780 389.806,264.965 389.916 C 265.149 390.025,265.193 389.942,265.063 389.732 C 264.921 389.501,265.699 389.155,267.021 388.862 C 268.227 388.595,269.132 388.241,269.030 388.077 C 268.861 387.804,269.061 387.742,270.463 387.630 C 270.718 387.609,271.009 387.509,271.111 387.407 C 271.284 387.235,274.543 386.003,275.370 385.797 C 275.574 385.747,276.116 385.499,276.574 385.247 C 277.032 384.995,277.410 384.920,277.413 385.080 C 277.416 385.240,277.541 385.204,277.691 385.000 C 278.010 384.566,281.320 382.963,281.897 382.963 C 282.115 382.963,282.754 382.635,283.318 382.233 C 283.882 381.832,284.458 381.619,284.599 381.759 C 284.740 381.900,284.986 381.804,285.146 381.545 C 285.306 381.286,285.797 381.047,286.237 381.014 C 286.677 380.981,287.037 380.842,287.037 380.707 C 287.037 380.571,287.579 380.239,288.241 379.968 C 288.903 379.697,289.664 379.261,289.933 378.998 C 290.202 378.735,290.863 378.409,291.402 378.274 C 291.941 378.138,292.698 377.734,293.084 377.374 C 293.469 377.015,294.017 376.810,294.300 376.919 C 294.583 377.027,294.815 376.932,294.815 376.706 C 294.815 376.481,295.117 376.296,295.486 376.296 C 295.855 376.296,296.514 375.963,296.952 375.556 C 297.389 375.148,297.920 374.815,298.133 374.815 C 298.345 374.815,298.519 374.648,298.519 374.444 C 298.519 374.241,298.838 374.074,299.228 374.074 C 299.619 374.074,299.994 373.920,300.062 373.731 C 300.130 373.543,300.435 373.335,300.739 373.269 C 301.044 373.202,301.461 372.949,301.665 372.706 C 301.870 372.462,302.281 372.212,302.578 372.150 C 302.876 372.088,303.449 371.745,303.852 371.389 C 304.255 371.032,304.813 370.741,305.092 370.741 C 305.371 370.741,305.496 370.574,305.370 370.370 C 305.244 370.167,305.318 369.979,305.534 369.954 C 306.709 369.815,307.799 369.224,307.569 368.850 C 307.456 368.668,307.678 368.519,308.062 368.519 C 308.446 368.519,309.151 368.102,309.630 367.593 C 310.108 367.083,310.814 366.667,311.198 366.667 C 311.581 366.667,311.820 366.542,311.727 366.389 C 311.635 366.236,311.792 365.896,312.076 365.634 C 312.360 365.371,312.593 365.258,312.593 365.383 C 312.593 365.507,313.029 365.266,313.562 364.847 C 314.095 364.427,314.704 364.191,314.916 364.322 C 315.138 364.459,315.188 364.379,315.035 364.131 C 314.877 363.875,315.012 363.704,315.370 363.704 C 315.700 363.704,315.874 363.549,315.757 363.360 C 315.534 362.999,316.957 362.371,317.593 362.550 C 317.796 362.607,317.845 362.536,317.701 362.392 C 317.299 361.991,318.973 360.799,319.618 361.027 C 319.930 361.138,320.068 361.099,319.925 360.941 C 319.629 360.613,320.489 359.630,321.072 359.630 C 321.283 359.630,321.636 359.292,321.857 358.879 C 322.078 358.465,322.400 358.214,322.572 358.321 C 322.745 358.427,322.990 358.241,323.118 357.908 C 323.246 357.574,323.443 357.393,323.555 357.506 C 323.668 357.618,324.304 357.184,324.968 356.540 C 325.633 355.897,326.641 355.037,327.208 354.630 C 327.774 354.222,328.656 353.472,329.166 352.963 C 329.676 352.454,329.975 352.287,329.830 352.593 C 329.684 352.898,329.909 352.731,330.330 352.222 C 330.751 351.713,331.098 351.171,331.103 351.019 C 331.107 350.866,331.361 350.741,331.667 350.741 C 331.972 350.741,332.222 350.612,332.222 350.455 C 332.222 350.297,332.798 349.858,333.502 349.479 C 334.206 349.100,334.748 348.604,334.706 348.376 C 334.664 348.149,334.838 348.005,335.093 348.056 C 335.347 348.106,335.536 348.023,335.512 347.870 C 335.413 347.245,335.573 346.669,335.833 346.711 C 336.588 346.830,337.037 346.615,337.037 346.136 C 337.037 345.844,337.356 345.504,337.745 345.381 C 338.135 345.257,339.258 344.204,340.241 343.041 C 342.633 340.211,342.846 340.000,343.307 340.000 C 343.525 340.000,343.704 339.756,343.704 339.457 C 343.704 339.159,344.037 338.737,344.444 338.519 C 344.852 338.300,345.185 337.878,345.185 337.580 C 345.185 337.281,345.519 337.037,345.926 337.037 C 346.446 337.037,346.668 336.788,346.672 336.204 C 346.677 335.530,346.747 335.477,347.037 335.926 C 347.392 336.475,347.603 336.051,347.451 335.093 C 347.427 334.940,347.532 334.856,347.685 334.907 C 347.838 334.958,348.027 334.833,348.106 334.630 C 348.184 334.426,348.643 333.921,349.124 333.507 C 349.606 333.093,350.000 332.546,350.000 332.291 C 350.000 332.037,350.292 331.718,350.648 331.583 C 351.493 331.263,352.222 330.532,352.222 330.005 C 352.222 329.774,352.387 329.688,352.588 329.812 C 352.798 329.942,352.860 329.793,352.734 329.464 C 352.591 329.091,352.723 328.889,353.109 328.889 C 353.436 328.889,353.704 328.758,353.704 328.599 C 353.704 328.224,355.048 326.533,356.562 325.005 C 357.217 324.344,357.651 323.701,357.527 323.577 C 357.403 323.452,357.575 323.246,357.910 323.117 C 358.245 322.989,358.519 322.652,358.519 322.368 C 358.519 322.084,358.713 321.852,358.951 321.852 C 359.188 321.852,359.282 321.751,359.158 321.627 C 358.865 321.334,359.730 320.397,360.093 320.616 C 360.245 320.709,360.370 320.601,360.370 320.377 C 360.370 319.977,360.703 319.495,361.891 318.175 C 362.218 317.812,362.601 317.054,362.742 316.491 C 362.883 315.929,363.094 315.563,363.210 315.679 C 363.525 315.994,364.444 314.956,364.444 314.286 C 364.444 313.966,364.611 313.704,364.815 313.704 C 365.019 313.704,365.185 313.444,365.185 313.126 C 365.185 312.809,365.337 312.643,365.524 312.758 C 365.710 312.873,366.084 312.466,366.355 311.854 C 366.626 311.242,366.983 310.741,367.149 310.741 C 367.315 310.741,367.362 310.596,367.253 310.420 C 367.144 310.243,367.384 309.801,367.787 309.437 C 368.189 309.072,368.519 308.621,368.519 308.435 C 368.519 308.248,368.770 307.844,369.077 307.536 C 369.385 307.229,369.542 306.824,369.426 306.637 C 369.310 306.450,369.392 306.296,369.608 306.296 C 369.823 306.296,370.000 306.036,370.000 305.719 C 370.000 305.401,370.150 305.234,370.334 305.348 C 370.518 305.462,370.843 305.055,371.056 304.444 C 371.269 303.833,371.603 303.333,371.798 303.333 C 371.993 303.333,372.061 302.958,371.948 302.500 C 371.835 302.042,371.876 301.789,372.038 301.939 C 372.470 302.336,373.307 301.077,373.327 300.000 C 373.341 299.265,373.419 299.188,373.704 299.630 C 374.001 300.090,374.064 300.058,374.069 299.444 C 374.072 299.037,374.481 298.231,374.978 297.654 C 375.475 297.076,375.988 296.118,376.118 295.524 C 376.248 294.930,376.509 294.444,376.696 294.444 C 376.884 294.444,377.019 294.319,376.997 294.167 C 376.906 293.532,377.516 292.246,377.820 292.433 C 378.000 292.545,378.148 292.241,378.148 291.758 C 378.148 291.275,378.523 290.478,378.981 289.986 C 379.440 289.494,379.774 289.004,379.725 288.898 C 379.675 288.791,380.036 287.870,380.526 286.852 C 381.016 285.833,381.776 284.167,382.216 283.148 C 383.028 281.268,383.231 280.865,384.470 278.659 C 384.853 277.977,385.070 277.167,384.952 276.861 C 384.828 276.538,384.991 276.205,385.339 276.072 C 385.669 275.945,385.901 275.652,385.855 275.421 C 385.808 275.189,385.978 274.625,386.232 274.167 C 386.485 273.708,386.601 273.333,386.490 273.333 C 386.378 273.333,386.524 272.764,386.815 272.067 C 387.106 271.371,387.247 270.704,387.129 270.586 C 387.011 270.467,387.108 270.370,387.346 270.370 C 387.583 270.370,387.778 269.954,387.778 269.444 C 387.778 268.935,387.944 268.519,388.148 268.519 C 388.352 268.519,388.519 268.185,388.519 267.778 C 388.519 267.370,388.649 267.037,388.808 267.037 C 388.967 267.037,389.135 266.588,389.180 266.039 C 389.226 265.490,389.387 264.949,389.539 264.836 C 389.691 264.722,389.866 264.213,389.929 263.704 C 389.992 263.194,390.285 262.251,390.579 261.608 C 390.873 260.964,391.150 260.006,391.193 259.478 C 391.237 258.950,391.403 258.519,391.562 258.519 C 391.722 258.519,391.852 258.102,391.852 257.593 C 391.852 257.083,391.984 256.667,392.147 256.667 C 392.309 256.667,392.483 256.042,392.535 255.279 C 392.586 254.515,392.787 253.732,392.981 253.538 C 393.175 253.344,393.333 252.719,393.333 252.148 C 393.333 251.578,393.500 251.111,393.704 251.111 C 393.907 251.111,394.074 250.704,394.074 250.207 C 394.074 249.710,394.215 249.216,394.388 249.109 C 394.560 249.003,394.716 248.412,394.733 247.796 C 394.751 247.180,394.896 246.466,395.056 246.209 C 395.361 245.720,395.434 245.270,395.783 241.759 C 395.899 240.588,396.146 239.630,396.331 239.630 C 396.515 239.630,396.667 238.786,396.667 237.756 C 396.667 236.356,396.784 235.952,397.130 236.160 C 397.444 236.349,397.430 236.238,397.084 235.812 C 396.805 235.467,396.746 235.185,396.954 235.185 C 397.322 235.185,397.579 233.834,398.012 229.630 C 398.127 228.509,398.347 227.426,398.501 227.222 C 399.277 226.196,399.373 174.580,398.604 171.852 C 398.346 170.935,398.080 169.502,398.012 168.666 C 397.945 167.831,397.790 166.986,397.667 166.788 C 397.545 166.590,397.406 165.690,397.358 164.788 C 397.310 163.886,397.141 163.059,396.982 162.950 C 396.824 162.841,396.647 161.898,396.588 160.855 C 396.530 159.813,396.373 159.027,396.240 159.109 C 396.000 159.257,395.563 156.307,395.537 154.364 C 395.530 153.810,395.364 153.259,395.169 153.138 C 394.974 153.018,394.815 152.336,394.815 151.623 C 394.815 150.910,394.666 150.418,394.485 150.531 C 394.303 150.643,394.061 150.194,393.947 149.534 C 393.447 146.647,393.224 145.926,392.828 145.920 C 392.597 145.917,392.657 145.753,392.963 145.556 C 393.333 145.316,393.364 145.195,393.056 145.191 C 392.801 145.188,392.593 144.862,392.593 144.466 C 392.593 144.071,392.426 143.644,392.222 143.519 C 392.019 143.393,391.852 142.706,391.852 141.993 C 391.852 141.279,391.696 140.794,391.504 140.912 C 391.313 141.030,391.168 140.832,391.182 140.471 C 391.196 140.110,391.089 139.315,390.943 138.704 C 390.798 138.093,390.625 137.343,390.558 137.037 C 390.262 135.670,389.888 134.815,389.586 134.815 C 389.406 134.815,389.259 134.638,389.259 134.423 C 389.259 134.207,389.423 134.131,389.622 134.255 C 389.822 134.378,389.743 134.013,389.447 133.443 C 389.151 132.874,388.640 131.741,388.312 130.926 C 387.984 130.111,387.563 129.155,387.376 128.801 C 387.190 128.448,387.037 127.823,387.037 127.412 C 387.037 127.002,386.912 126.667,386.759 126.666 C 386.606 126.666,386.458 126.262,386.430 125.768 C 386.401 125.274,386.110 124.332,385.782 123.674 C 385.454 123.017,385.185 122.171,385.185 121.795 C 385.185 121.419,385.019 121.111,384.815 121.111 C 384.611 121.111,384.442 120.736,384.439 120.278 C 384.435 119.717,384.336 119.597,384.137 119.912 C 383.945 120.213,383.659 119.716,383.331 118.510 C 383.051 117.481,382.605 116.461,382.341 116.241 C 382.076 116.022,381.951 115.694,382.063 115.514 C 382.175 115.333,382.108 115.185,381.914 115.185 C 381.523 115.185,380.943 113.429,381.076 112.648 C 381.122 112.373,381.000 112.247,380.804 112.368 C 380.362 112.642,379.909 111.558,380.241 111.020 C 380.385 110.788,380.309 110.735,380.057 110.891 C 379.787 111.058,379.630 110.874,379.630 110.392 C 379.630 109.973,379.463 109.630,379.259 109.630 C 379.056 109.630,378.889 109.286,378.889 108.867 C 378.889 108.448,378.722 108.207,378.519 108.333 C 378.308 108.464,378.148 108.145,378.148 107.593 C 378.148 107.040,377.989 106.722,377.778 106.852 C 377.574 106.978,377.407 106.835,377.407 106.534 C 377.407 106.234,377.246 105.932,377.048 105.864 C 376.850 105.796,376.632 105.373,376.565 104.924 C 376.497 104.475,376.178 103.808,375.857 103.442 C 375.536 103.077,375.159 102.403,375.019 101.944 C 374.879 101.486,374.645 101.111,374.498 101.111 C 374.352 101.111,374.206 100.771,374.175 100.355 C 374.143 99.939,373.733 99.260,373.263 98.845 C 372.792 98.431,372.598 98.186,372.830 98.302 C 373.063 98.418,372.828 97.687,372.308 96.679 C 371.788 95.670,371.197 94.947,370.995 95.072 C 370.791 95.198,370.741 95.113,370.884 94.882 C 371.026 94.652,370.811 94.180,370.405 93.833 C 369.999 93.485,369.752 93.064,369.856 92.897 C 369.959 92.730,369.867 92.593,369.651 92.593 C 369.436 92.593,369.259 92.380,369.259 92.120 C 369.259 91.859,368.783 91.125,368.201 90.488 C 367.077 89.257,366.511 88.218,366.610 87.563 C 366.643 87.343,366.211 86.744,365.650 86.232 C 364.493 85.176,362.966 83.423,362.964 83.147 C 362.964 83.046,362.963 82.821,362.963 82.647 C 362.963 82.473,362.546 81.881,362.037 81.331 C 361.528 80.782,361.111 80.081,361.111 79.774 C 361.111 79.467,360.944 79.319,360.741 79.444 C 360.537 79.570,360.370 79.414,360.370 79.096 C 360.370 78.778,360.162 78.560,359.907 78.611 C 359.653 78.662,359.488 78.491,359.540 78.230 C 359.593 77.970,359.386 77.661,359.080 77.543 C 358.773 77.426,358.608 77.192,358.712 77.024 C 358.816 76.855,358.528 76.456,358.072 76.136 C 357.616 75.817,357.361 75.556,357.507 75.556 C 357.880 75.556,356.591 74.016,352.876 70.025 C 352.173 69.270,352.157 69.204,352.778 69.622 C 353.185 69.896,352.639 69.218,351.565 68.116 C 348.524 64.995,347.919 64.304,348.519 64.631 C 348.824 64.798,348.671 64.491,348.178 63.950 C 347.684 63.409,347.219 63.028,347.142 63.104 C 346.996 63.251,344.700 61.058,344.668 60.741 C 344.619 60.265,343.186 58.936,342.907 59.109 C 342.734 59.215,342.593 59.154,342.593 58.971 C 342.593 58.462,339.735 55.573,339.482 55.827 C 339.360 55.949,339.259 55.797,339.259 55.490 C 339.259 54.820,338.004 53.601,337.664 53.941 C 337.532 54.073,337.304 53.865,337.156 53.480 C 336.865 52.722,335.376 51.111,334.967 51.111 C 334.828 51.111,334.341 50.736,333.885 50.278 C 333.429 49.819,332.456 49.028,331.723 48.519 C 330.990 48.009,330.386 47.376,330.381 47.110 C 330.375 46.845,329.870 46.454,329.259 46.241 C 328.648 46.028,328.148 45.620,328.148 45.334 C 328.148 45.049,328.002 44.856,327.822 44.907 C 327.643 44.958,327.072 44.546,326.553 43.992 C 325.936 43.332,325.547 43.140,325.427 43.436 C 325.309 43.727,325.233 43.686,325.214 43.321 C 325.198 43.008,324.682 42.455,324.068 42.092 C 323.453 41.729,323.046 41.276,323.163 41.086 C 323.281 40.896,323.034 40.741,322.614 40.741 C 322.195 40.741,321.852 40.583,321.852 40.391 C 321.852 40.198,321.394 39.812,320.833 39.533 C 320.273 39.253,319.856 38.827,319.907 38.586 C 319.958 38.345,319.875 38.177,319.722 38.213 C 319.197 38.335,317.431 37.299,317.626 36.983 C 317.734 36.809,317.478 36.667,317.059 36.667 C 316.639 36.667,316.296 36.511,316.296 36.321 C 316.296 36.131,315.961 35.869,315.550 35.739 C 315.140 35.609,314.878 35.383,314.968 35.237 C 315.059 35.090,314.398 34.581,313.500 34.105 C 312.602 33.628,311.959 33.089,312.072 32.906 C 312.185 32.724,312.140 32.598,311.972 32.627 C 311.222 32.758,310.716 32.562,310.926 32.222 C 311.132 31.889,310.646 31.691,309.907 31.808 C 309.755 31.832,309.630 31.685,309.630 31.481 C 309.630 31.278,309.397 31.111,309.114 31.111 C 308.830 31.111,308.502 30.861,308.385 30.556 C 308.267 30.250,307.958 30.003,307.697 30.006 C 307.365 30.010,307.389 30.119,307.778 30.370 C 308.083 30.568,308.156 30.732,307.940 30.735 C 307.723 30.738,307.067 30.241,306.481 29.630 C 305.896 29.019,305.188 28.519,304.909 28.519 C 304.629 28.519,304.504 28.352,304.630 28.148 C 304.758 27.941,304.472 27.778,303.981 27.778 C 303.498 27.778,302.736 27.436,302.287 27.018 C 301.833 26.595,301.269 26.375,301.014 26.522 C 300.762 26.667,300.678 26.650,300.828 26.485 C 301.173 26.104,300.023 25.213,299.167 25.197 C 298.810 25.190,298.519 25.054,298.519 24.895 C 298.519 24.505,296.294 23.201,295.384 23.058 C 294.984 22.995,294.302 22.610,293.868 22.202 C 293.434 21.795,292.717 21.391,292.274 21.306 C 291.224 21.104,288.519 19.580,288.519 19.191 C 288.519 19.025,288.394 18.916,288.241 18.949 C 288.088 18.982,287.494 18.815,286.920 18.578 C 286.347 18.342,285.712 18.148,285.510 18.148 C 285.307 18.148,285.244 17.981,285.370 17.778 C 285.500 17.568,285.189 17.407,284.651 17.407 C 284.130 17.407,283.704 17.230,283.704 17.012 C 283.704 16.778,283.384 16.718,282.917 16.867 C 282.333 17.052,282.205 16.994,282.422 16.643 C 282.628 16.309,282.537 16.238,282.110 16.402 C 281.777 16.530,281.400 16.465,281.272 16.257 C 281.048 15.894,279.760 15.289,279.147 15.259 C 278.984 15.251,278.442 14.978,277.943 14.651 C 277.445 14.324,277.037 14.170,277.037 14.308 C 277.037 14.446,276.745 14.298,276.389 13.978 C 276.032 13.658,275.108 13.278,274.334 13.135 C 273.560 12.991,272.725 12.672,272.479 12.426 C 272.232 12.179,271.824 12.046,271.571 12.131 C 271.318 12.215,271.111 12.103,271.111 11.883 C 271.111 11.662,270.788 11.481,270.392 11.481 C 269.997 11.481,269.563 11.303,269.429 11.086 C 269.294 10.868,268.984 10.767,268.740 10.861 C 268.496 10.954,267.888 10.805,267.389 10.529 C 266.890 10.252,266.097 10.020,265.626 10.013 C 265.070 10.005,264.865 9.849,265.039 9.567 C 265.223 9.269,265.099 9.213,264.643 9.388 C 264.279 9.528,263.734 9.439,263.434 9.189 C 262.855 8.708,262.763 8.678,260.741 8.313 C 260.028 8.184,259.265 7.931,259.045 7.750 C 258.825 7.570,258.325 7.372,257.934 7.311 C 257.542 7.251,256.988 7.055,256.702 6.877 C 256.317 6.637,256.259 6.688,256.479 7.072 C 256.719 7.493,256.680 7.504,256.277 7.130 C 256.002 6.875,255.186 6.664,254.463 6.661 C 253.478 6.657,253.287 6.565,253.704 6.296 C 254.205 5.972,252.920 5.699,251.759 5.882 C 251.606 5.906,251.481 5.759,251.481 5.556 C 251.481 5.352,250.888 5.185,250.163 5.185 C 249.380 5.185,248.938 5.035,249.074 4.815 C 249.199 4.612,249.001 4.472,248.633 4.504 C 247.219 4.626,245.519 4.432,245.683 4.167 C 245.777 4.014,245.352 3.853,244.738 3.808 C 244.125 3.764,243.433 3.594,243.200 3.431 C 242.968 3.268,242.236 3.143,241.574 3.154 C 240.912 3.164,240.370 3.070,240.370 2.943 C 240.370 2.742,239.847 2.674,237.037 2.505 C 236.731 2.487,235.981 2.201,235.370 1.869 C 234.724 1.518,233.183 1.224,231.687 1.165 C 230.272 1.110,228.939 0.955,228.724 0.821 C 228.509 0.686,228.083 0.503,227.778 0.413 C 227.048 0.198,174.249 0.049,172.685 0.257 M170.420 91.508 C 170.895 91.762,177.144 103.947,187.754 125.305 C 196.879 143.674,207.659 165.372,211.709 173.521 C 215.760 181.671,219.382 189.087,219.757 190.003 C 220.133 190.918,220.659 192.167,220.926 192.778 C 221.193 193.389,221.859 194.972,222.407 196.296 C 223.310 198.477,223.915 199.904,224.842 202.037 C 225.634 203.860,233.114 221.498,235.366 226.852 C 236.737 230.111,238.180 233.444,238.573 234.259 L 239.288 235.741 239.068 233.333 C 238.947 232.009,238.691 229.634,238.498 228.056 C 238.023 224.157,237.531 220.069,237.085 216.296 C 236.880 214.565,236.614 212.398,236.493 211.481 C 235.450 203.520,233.730 186.661,232.923 176.481 C 232.352 169.269,232.082 92.281,232.627 91.626 C 233.167 90.974,285.852 90.847,287.061 91.495 C 288.003 91.998,288.214 306.954,287.274 307.735 C 286.907 308.039,278.833 308.127,257.563 308.058 L 228.355 307.963 226.605 304.444 C 225.641 302.509,224.845 300.718,224.834 300.463 C 224.824 300.208,224.648 300.000,224.444 300.000 C 224.241 300.000,224.074 299.667,224.074 299.259 C 224.074 298.852,223.948 298.519,223.794 298.519 C 223.640 298.519,223.283 297.977,223.000 297.315 C 222.717 296.653,218.843 288.765,214.391 279.787 C 209.939 270.809,206.296 263.268,206.296 263.028 C 206.296 262.789,206.170 262.593,206.016 262.593 C 205.862 262.593,205.503 262.051,205.217 261.389 C 204.932 260.727,201.974 254.667,198.645 247.923 C 195.316 241.179,192.593 235.471,192.593 235.238 C 192.593 235.005,192.426 234.815,192.222 234.815 C 192.019 234.815,191.852 234.481,191.852 234.074 C 191.852 233.667,191.726 233.333,191.572 233.333 C 191.418 233.333,191.057 232.792,190.769 232.130 C 189.390 228.954,186.853 223.876,186.591 223.765 C 186.429 223.698,186.296 223.489,186.296 223.302 C 186.296 223.114,184.780 219.837,182.926 216.018 C 181.072 212.199,179.427 208.741,179.269 208.333 C 179.112 207.926,178.646 206.843,178.234 205.926 C 177.187 203.598,176.504 201.992,175.555 199.630 C 175.105 198.509,174.438 196.926,174.074 196.111 C 173.709 195.296,173.161 194.046,172.855 193.333 C 172.550 192.620,171.949 191.255,171.521 190.298 C 171.092 189.342,170.741 188.465,170.741 188.350 C 170.741 188.156,170.246 186.996,168.519 183.148 C 167.548 180.982,166.847 179.331,165.925 177.037 C 165.123 175.040,164.763 174.214,162.817 169.897 C 162.286 168.720,161.852 167.677,161.852 167.578 C 161.852 167.480,161.534 166.693,161.145 165.829 C 160.756 164.966,160.338 164.009,160.216 163.704 C 159.928 162.985,160.178 165.994,161.094 174.259 C 161.776 180.426,162.030 182.613,162.974 190.464 C 164.554 203.609,164.777 205.505,165.181 209.259 C 166.720 223.565,167.004 233.230,167.021 271.870 C 167.033 298.919,166.932 307.364,166.593 307.704 C 165.825 308.472,112.002 308.333,111.706 307.562 C 111.058 305.872,111.477 91.891,112.130 91.511 C 113.054 90.973,169.414 90.970,170.420 91.508 " stroke="none" fill="#44ccb4" fill-rule="evenodd"></path><path id="path2" d="M112.130 91.511 C 111.477 91.891,111.058 305.872,111.706 307.562 C 112.002 308.333,165.825 308.472,166.593 307.704 C 166.934 307.363,167.016 298.714,166.947 270.574 L 166.857 233.889 166.669 270.741 L 166.481 307.593 139.259 307.593 L 112.037 307.593 111.944 199.837 C 111.869 113.877,111.944 92.022,112.314 91.787 C 112.970 91.371,169.533 91.402,170.302 91.820 C 170.645 92.006,172.586 95.499,174.614 99.582 C 176.643 103.665,178.361 106.947,178.432 106.876 C 178.743 106.566,171.057 91.849,170.401 91.498 C 169.413 90.969,113.039 90.982,112.130 91.511 M232.667 91.556 C 232.422 91.800,232.227 92.175,232.233 92.389 C 232.240 92.603,232.415 92.486,232.622 92.130 C 233.029 91.432,285.860 91.098,286.945 91.787 C 287.315 92.022,287.390 113.877,287.315 199.837 L 287.222 307.593 257.721 307.593 C 241.495 307.593,228.296 307.718,228.391 307.870 C 228.701 308.373,286.829 308.208,287.333 307.704 C 288.220 306.817,287.950 91.970,287.061 91.495 C 285.967 90.909,233.254 90.968,232.667 91.556 M180.819 112.023 C 181.674 113.747,182.433 115.098,182.506 115.024 C 182.671 114.860,179.690 108.889,179.443 108.889 C 179.345 108.889,179.964 110.299,180.819 112.023 M185.262 120.914 C 185.912 122.232,186.505 123.248,186.579 123.174 C 186.745 123.008,184.506 118.519,184.257 118.519 C 184.160 118.519,184.613 119.596,185.262 120.914 M197.077 144.630 C 197.077 144.833,199.059 148.917,201.481 153.704 C 203.904 158.491,205.886 162.241,205.886 162.037 C 205.886 161.833,203.904 157.750,201.481 152.963 C 199.059 148.176,197.077 144.426,197.077 144.630 M232.293 163.519 C 232.284 166.574,232.398 169.824,232.546 170.741 C 232.694 171.657,232.755 169.407,232.681 165.741 C 232.513 157.365,232.313 156.219,232.293 163.519 M208.228 167.206 C 209.492 169.744,210.584 171.761,210.656 171.690 C 210.819 171.526,206.355 162.593,206.110 162.593 C 206.011 162.593,206.964 164.669,208.228 167.206 M160.074 167.407 C 160.063 168.120,160.188 169.454,160.351 170.370 C 160.626 171.914,160.649 171.941,160.667 170.741 C 160.677 170.028,160.552 168.694,160.389 167.778 C 160.115 166.234,160.091 166.207,160.074 167.407 M212.301 175.356 C 213.155 177.080,213.915 178.431,213.988 178.358 C 214.153 178.193,211.171 172.222,210.924 172.222 C 210.826 172.222,211.446 173.633,212.301 175.356 M160.762 173.920 C 160.774 174.718,160.928 176.037,161.106 176.852 C 161.344 177.950,161.374 177.615,161.221 175.556 C 160.997 172.544,160.728 171.583,160.762 173.920 M233.000 178.920 C 233.020 179.819,233.171 180.972,233.335 181.481 C 233.514 182.037,233.553 181.445,233.432 180.000 C 233.196 177.187,232.947 176.564,233.000 178.920 M161.587 180.556 C 161.590 181.574,161.662 181.947,161.747 181.384 C 161.832 180.821,161.830 179.987,161.742 179.532 C 161.654 179.076,161.585 179.537,161.587 180.556 M216.744 184.247 C 217.393 185.565,217.986 186.582,218.061 186.507 C 218.226 186.341,215.987 181.852,215.739 181.852 C 215.642 181.852,216.094 182.930,216.744 184.247 M162.328 186.852 C 162.331 187.870,162.403 188.243,162.488 187.680 C 162.573 187.117,162.571 186.284,162.483 185.828 C 162.395 185.373,162.325 185.833,162.328 186.852 M233.730 187.623 C 233.744 188.218,233.903 189.037,234.084 189.444 C 234.303 189.939,234.339 189.631,234.191 188.519 C 233.932 186.556,233.693 186.092,233.730 187.623 M170.943 188.981 C 171.081 189.440,171.347 189.978,171.533 190.177 C 171.720 190.376,171.684 190.001,171.455 189.343 C 170.986 187.998,170.553 187.692,170.943 188.981 M163.069 193.148 C 163.072 194.167,163.144 194.539,163.229 193.976 C 163.314 193.413,163.312 192.580,163.224 192.125 C 163.136 191.669,163.066 192.130,163.069 193.148 M234.532 194.444 C 234.532 194.954,234.659 195.870,234.815 196.481 C 235.067 197.473,235.098 197.493,235.098 196.667 C 235.098 196.157,234.970 195.241,234.815 194.630 C 234.563 193.639,234.532 193.619,234.532 194.444 M163.588 197.963 C 163.702 199.389,163.858 200.625,163.934 200.710 C 164.191 200.994,163.991 197.608,163.684 196.481 C 163.493 195.781,163.458 196.328,163.588 197.963 M221.878 195.741 C 221.878 195.944,222.116 196.528,222.407 197.037 C 222.699 197.546,222.937 197.796,222.937 197.593 C 222.937 197.389,222.699 196.806,222.407 196.296 C 222.116 195.787,221.878 195.537,221.878 195.741 M164.150 202.778 C 164.144 203.389,164.269 204.722,164.427 205.741 L 164.716 207.593 164.722 205.741 C 164.725 204.722,164.600 203.389,164.444 202.778 L 164.162 201.667 164.150 202.778 M235.656 203.704 C 235.656 204.620,235.729 204.995,235.817 204.537 C 235.905 204.079,235.905 203.329,235.817 202.870 C 235.729 202.412,235.656 202.787,235.656 203.704 M225.952 205.370 C 225.952 205.574,226.190 206.157,226.481 206.667 C 226.773 207.176,227.011 207.426,227.011 207.222 C 227.011 207.019,226.773 206.435,226.481 205.926 C 226.190 205.417,225.952 205.167,225.952 205.370 M164.892 209.444 C 164.880 210.259,165.003 211.676,165.166 212.593 C 165.583 214.937,165.615 212.467,165.202 209.815 C 164.921 208.011,164.913 208.001,164.892 209.444 M236.333 210.216 C 236.354 211.218,236.502 212.454,236.664 212.963 C 236.834 213.501,236.875 212.803,236.760 211.296 C 236.528 208.244,236.281 207.617,236.333 210.216 M227.809 209.815 C 227.809 210.019,228.128 210.769,228.519 211.481 C 228.909 212.194,229.228 212.611,229.228 212.407 C 229.228 212.204,228.909 211.454,228.519 210.741 C 228.128 210.028,227.809 209.611,227.809 209.815 M180.000 210.142 C 180.000 210.539,181.102 212.593,181.315 212.593 C 181.417 212.593,181.225 212.051,180.888 211.389 C 180.201 210.037,180.000 209.755,180.000 210.142 M230.092 215.185 C 230.939 217.425,233.104 222.205,233.218 222.090 C 233.380 221.928,230.500 215.177,230.128 214.847 C 229.993 214.728,229.977 214.880,230.092 215.185 M165.680 217.778 C 165.680 219.306,165.745 219.931,165.825 219.167 C 165.905 218.403,165.905 217.153,165.825 216.389 C 165.745 215.625,165.680 216.250,165.680 217.778 M237.063 216.883 C 237.077 217.681,237.231 218.667,237.404 219.074 C 237.600 219.535,237.640 219.045,237.511 217.778 C 237.263 215.338,237.027 214.867,237.063 216.883 M166.027 222.222 C 166.027 223.139,166.099 223.514,166.187 223.056 C 166.276 222.597,166.276 221.847,166.187 221.389 C 166.099 220.931,166.027 221.306,166.027 222.222 M237.783 223.364 C 237.787 224.060,237.956 224.880,238.159 225.185 C 238.418 225.573,238.456 225.239,238.287 224.074 C 237.986 222.000,237.776 221.704,237.783 223.364 M166.438 228.704 C 166.438 231.148,166.498 232.100,166.571 230.819 C 166.643 229.538,166.643 227.538,166.570 226.374 C 166.496 225.211,166.437 226.259,166.438 228.704 M234.090 224.492 C 234.056 224.982,235.238 227.478,235.419 227.297 C 235.523 227.193,235.271 226.466,234.858 225.683 C 234.445 224.900,234.099 224.364,234.090 224.492 M238.545 229.660 C 238.559 230.153,238.722 230.889,238.906 231.296 C 239.140 231.813,239.173 231.588,239.016 230.556 C 238.754 228.836,238.507 228.366,238.545 229.660 M236.323 229.815 C 236.323 230.019,236.561 230.602,236.852 231.111 C 237.143 231.620,237.381 231.870,237.381 231.667 C 237.381 231.463,237.143 230.880,236.852 230.370 C 236.561 229.861,236.323 229.611,236.323 229.815 M238.148 234.352 C 238.148 234.529,238.390 234.997,238.685 235.392 C 239.203 236.086,239.215 236.082,239.011 235.272 C 238.800 234.436,238.148 233.740,238.148 234.352 M198.964 248.696 C 199.407 249.608,199.833 250.291,199.911 250.213 C 200.078 250.045,198.582 247.037,198.331 247.037 C 198.236 247.037,198.520 247.783,198.964 248.696 M211.852 274.583 C 211.852 274.983,213.323 277.778,213.534 277.778 C 213.635 277.778,213.362 277.069,212.925 276.204 C 212.066 274.501,211.852 274.177,211.852 274.583 M217.482 286.103 C 217.925 287.015,218.351 287.698,218.429 287.620 C 218.597 287.453,217.100 284.444,216.849 284.444 C 216.754 284.444,217.039 285.191,217.482 286.103 " stroke="none" fill="#3cad9d" fill-rule="evenodd"></path><path id="path3" d="M111.852 199.590 C 111.852 297.491,111.905 307.349,112.438 307.553 C 113.863 308.100,165.821 307.795,166.284 307.237 C 166.884 306.514,166.608 230.235,165.980 223.333 C 164.900 211.460,164.532 207.858,163.695 200.926 C 163.498 199.296,162.920 194.213,162.411 189.630 C 161.901 185.046,161.323 180.046,161.127 178.519 C 160.930 176.991,160.585 174.074,160.360 172.037 C 159.680 165.900,159.256 163.601,159.471 167.222 C 159.568 168.852,159.802 171.435,159.990 172.963 C 160.179 174.491,160.513 177.324,160.733 179.259 C 161.557 186.538,162.250 192.403,163.140 199.630 C 163.730 204.424,164.955 217.186,165.575 225.000 C 166.030 230.723,166.556 304.469,166.154 306.070 L 165.911 307.042 139.159 306.947 L 112.407 306.852 112.407 199.630 L 112.407 92.407 141.361 92.313 L 170.315 92.218 176.783 105.276 C 180.341 112.457,191.161 134.250,200.828 153.704 C 210.495 173.157,219.033 190.574,219.803 192.407 C 220.572 194.241,221.664 196.824,222.229 198.148 C 222.795 199.472,224.626 203.806,226.298 207.778 C 227.971 211.750,229.738 215.880,230.225 216.955 C 230.713 218.031,231.111 218.979,231.111 219.062 C 231.111 219.424,237.889 235.083,238.371 235.833 C 240.079 238.494,240.331 236.097,239.237 227.593 C 239.027 225.963,238.703 223.296,238.516 221.667 C 238.329 220.037,238.004 217.287,237.794 215.556 C 237.583 213.824,236.993 208.657,236.482 204.074 C 235.971 199.491,235.393 194.407,235.199 192.778 C 234.824 189.639,234.249 183.487,233.814 177.963 C 233.669 176.130,233.489 175.106,233.414 175.689 C 233.177 177.517,234.107 187.687,235.926 203.148 C 236.130 204.880,236.454 207.671,236.646 209.352 C 236.838 211.032,237.423 216.074,237.947 220.556 C 239.550 234.287,239.668 235.666,239.272 236.061 C 239.031 236.303,238.702 235.932,238.309 234.973 C 237.980 234.173,236.997 231.852,236.125 229.815 C 235.252 227.778,233.414 223.444,232.039 220.185 C 230.665 216.926,229.245 213.593,228.884 212.778 C 228.523 211.963,227.611 209.796,226.857 207.963 C 226.103 206.130,225.186 203.963,224.820 203.148 C 224.454 202.333,223.539 200.167,222.786 198.333 C 222.034 196.500,221.191 194.500,220.914 193.889 C 220.637 193.278,219.761 191.278,218.967 189.444 C 218.173 187.611,206.968 164.903,194.066 138.981 L 170.609 91.852 141.230 91.852 L 111.852 91.852 111.852 199.590 M232.640 129.164 C 232.666 149.689,232.791 168.315,232.917 170.556 C 233.044 172.796,233.090 156.088,233.018 133.426 L 232.889 92.222 259.778 92.222 L 286.667 92.222 286.667 199.632 L 286.667 307.042 257.724 306.947 L 228.781 306.852 226.541 302.407 C 225.309 299.963,219.521 288.296,213.680 276.481 C 207.838 264.667,198.188 245.167,192.236 233.148 C 186.284 221.130,179.672 207.213,177.543 202.222 C 175.413 197.231,173.447 192.648,173.173 192.037 C 172.899 191.426,170.805 186.509,168.519 181.111 C 166.232 175.713,164.136 170.796,163.861 170.185 C 163.585 169.574,162.800 167.751,162.117 166.135 C 160.796 163.013,159.874 161.991,159.254 162.963 C 158.682 163.861,158.837 164.179,159.517 163.499 C 160.279 162.737,159.985 162.151,166.297 177.037 C 168.758 182.843,170.999 188.093,171.277 188.704 C 171.554 189.315,172.231 190.898,172.781 192.222 C 173.331 193.546,174.075 195.296,174.435 196.111 C 174.795 196.926,176.216 200.259,177.593 203.519 C 180.372 210.095,182.666 214.852,197.597 245.000 C 203.247 256.407,212.439 274.991,218.024 286.296 C 223.608 297.602,228.453 307.060,228.789 307.315 C 229.727 308.025,286.402 307.987,286.992 307.276 C 287.299 306.907,287.384 278.468,287.315 199.406 L 287.222 92.037 259.907 91.942 L 232.593 91.847 232.640 129.164 " stroke="none" fill="#358d85" fill-rule="evenodd"></path><path id="path4" d="M126.972 91.759 C 134.982 91.815,147.982 91.815,155.861 91.759 C 163.739 91.703,157.185 91.658,141.296 91.658 C 125.407 91.658,118.961 91.703,126.972 91.759 M246.416 91.759 C 253.917 91.815,266.084 91.815,273.453 91.759 C 280.822 91.703,274.685 91.657,259.815 91.657 C 244.944 91.657,238.915 91.703,246.416 91.759 M232.400 125.370 C 232.400 143.500,232.445 150.862,232.500 141.731 C 232.555 132.600,232.555 117.767,232.500 108.768 C 232.445 99.770,232.400 107.241,232.400 125.370 M232.679 168.519 C 232.679 169.231,232.755 169.523,232.848 169.167 C 232.941 168.810,232.941 168.227,232.848 167.870 C 232.755 167.514,232.679 167.806,232.679 168.519 M233.064 175.926 C 233.064 176.843,233.136 177.218,233.224 176.759 C 233.313 176.301,233.313 175.551,233.224 175.093 C 233.136 174.634,233.064 175.009,233.064 175.926 M166.019 225.000 C 166.023 225.815,166.099 226.105,166.188 225.644 C 166.276 225.183,166.273 224.516,166.180 224.162 C 166.088 223.808,166.015 224.185,166.019 225.000 M166.397 234.444 C 166.397 235.361,166.469 235.736,166.558 235.278 C 166.646 234.819,166.646 234.069,166.558 233.611 C 166.469 233.153,166.397 233.528,166.397 234.444 M239.310 234.929 C 239.277 235.613,239.113 235.879,238.832 235.705 C 238.556 235.535,238.505 235.605,238.688 235.901 C 239.122 236.602,239.721 235.790,239.526 234.765 C 239.377 233.977,239.355 233.993,239.310 234.929 " stroke="none" fill="#3ca494" fill-rule="evenodd"></path></g></svg>